<svg width="40" height="40" viewBox="0 0 40 40" fill="none" xmlns="http://www.w3.org/2000/svg">
<path d="M12 0.5H28C34.3513 0.5 39.5 5.64873 39.5 12V28C39.5 34.3513 34.3513 39.5 28 39.5H12C5.64873 39.5 0.5 34.3513 0.5 28V12C0.5 5.64873 5.64873 0.5 12 0.5Z" fill="#F4F5F4"/>
<path d="M12 0.5H28C34.3513 0.5 39.5 5.64873 39.5 12V28C39.5 34.3513 34.3513 39.5 28 39.5H12C5.64873 39.5 0.5 34.3513 0.5 28V12C0.5 5.64873 5.64873 0.5 12 0.5Z" stroke="#F4F5F4"/>
<path d="M20.735 12C21.4652 12 21.9937 12.005 22.3204 12.015L22.9689 12.045C23.6415 12.075 24.2228 12.19 24.7128 12.39C25.2029 12.59 25.6304 12.88 25.9956 13.26C26.3607 13.64 26.6393 14.085 26.8315 14.595C27.0236 15.105 27.1341 15.71 27.163 16.41L27.1918 17.085C27.2014 17.435 27.2062 17.985 27.2062 18.735V20.265C27.2062 21.025 27.2014 21.575 27.1918 21.915L27.163 22.59C27.1341 23.29 27.0236 23.895 26.8315 24.405C26.6393 24.915 26.3607 25.36 25.9956 25.74C25.6304 26.12 25.2029 26.41 24.7128 26.61C24.2228 26.81 23.6415 26.925 22.9689 26.955L22.3204 26.985C21.9841 26.995 21.4556 27 20.735 27H19.2649C18.5347 27 18.0062 26.995 17.6795 26.985L17.031 26.955C16.3584 26.925 15.7771 26.81 15.2871 26.61C14.797 26.41 14.3695 26.12 14.0044 25.74C13.6392 25.36 13.3606 24.915 13.1684 24.405C12.9763 23.895 12.8658 23.29 12.8369 22.59L12.8081 21.915C12.7985 21.565 12.7937 21.015 12.7937 20.265V18.735C12.7937 17.975 12.7985 17.425 12.8081 17.085L12.8369 16.41C12.8658 15.71 12.9763 15.105 13.1684 14.595C13.3606 14.085 13.6392 13.64 14.0044 13.26C14.3695 12.88 14.797 12.59 15.2871 12.39C15.7771 12.19 16.3584 12.075 17.031 12.045L17.6795 12.015C18.0158 12.005 18.5443 12 19.2649 12H20.735ZM20 15.75C19.3466 15.75 18.7437 15.9175 18.1912 16.2525C17.6387 16.5875 17.2015 17.0425 16.8796 17.6175C16.5578 18.1925 16.3968 18.82 16.3968 19.5C16.3968 20.18 16.5578 20.8075 16.8796 21.3825C17.2015 21.9575 17.6387 22.4125 18.1912 22.7475C18.7437 23.0825 19.3466 23.25 20 23.25C20.6533 23.25 21.2562 23.0825 21.8087 22.7475C22.3612 22.4125 22.7984 21.9575 23.1203 21.3825C23.4421 20.8075 23.6031 20.18 23.6031 19.5C23.6031 18.82 23.4421 18.1925 23.1203 17.6175C22.7984 17.0425 22.3612 16.5875 21.8087 16.2525C21.2562 15.9175 20.6533 15.75 20 15.75ZM20 17.25C20.3939 17.25 20.7566 17.35 21.0881 17.55C21.4196 17.75 21.6814 18.0225 21.8736 18.3675C22.0657 18.7125 22.1618 19.09 22.1618 19.5C22.1618 19.91 22.0657 20.2875 21.8736 20.6325C21.6814 20.9775 21.4196 21.25 21.0881 21.45C20.7566 21.65 20.3939 21.75 20 21.75C19.606 21.75 19.2433 21.65 18.9118 21.45C18.5803 21.25 18.3185 20.9775 18.1263 20.6325C17.9342 20.2875 17.8381 19.91 17.8381 19.5C17.8381 19.09 17.9342 18.7125 18.1263 18.3675C18.3185 18.0225 18.5803 17.75 18.9118 17.55C19.2433 17.35 19.606 17.25 20 17.25ZM23.776 14.625C23.5358 14.625 23.3268 14.7175 23.1491 14.9025C22.9713 15.0875 22.8825 15.3075 22.8825 15.5625C22.8825 15.8175 22.9713 16.0375 23.1491 16.2225C23.3268 16.4075 23.5382 16.5 23.7832 16.5C24.0282 16.5 24.2396 16.4075 24.4174 16.2225C24.5951 16.0375 24.684 15.8175 24.684 15.5625C24.684 15.3075 24.5951 15.0875 24.4174 14.9025C24.2396 14.7175 24.0258 14.625 23.776 14.625Z" fill="#8B939A"/>
</svg>


