<svg width="40" height="40" viewBox="0 0 40 40" fill="none" xmlns="http://www.w3.org/2000/svg">
<path d="M12 0.5H28C34.3513 0.5 39.5 5.64873 39.5 12V28C39.5 34.3513 34.3513 39.5 28 39.5H12C5.64873 39.5 0.5 34.3513 0.5 28V12C0.5 5.64873 5.64873 0.5 12 0.5Z" fill="#F4F5F4"/>
<path d="M12 0.5H28C34.3513 0.5 39.5 5.64873 39.5 12V28C39.5 34.3513 34.3513 39.5 28 39.5H12C5.64873 39.5 0.5 34.3513 0.5 28V12C0.5 5.64873 5.64873 0.5 12 0.5Z" stroke="#F4F5F4"/>
<path d="M20.1729 13.5C20.9992 13.5 21.7919 13.52 22.551 13.56L22.9113 13.575C24.1796 13.635 25.0347 13.73 25.4767 13.86C25.8226 13.96 26.1205 14.145 26.3703 14.415C26.6201 14.685 26.7882 15.005 26.8747 15.375C26.9996 15.875 27.0909 16.62 27.1486 17.61C27.1774 18.19 27.1966 18.78 27.2062 19.38V19.62C27.1966 20.22 27.1774 20.81 27.1486 21.39C27.0909 22.38 26.9996 23.125 26.8747 23.625C26.7882 23.995 26.6201 24.315 26.3703 24.585C26.1205 24.855 25.8226 25.04 25.4767 25.14C25.0347 25.27 24.1796 25.365 22.9113 25.425L22.551 25.44C21.7919 25.47 20.9992 25.49 20.1729 25.5H19.827C18.9334 25.49 18.0831 25.47 17.276 25.44C15.902 25.38 14.9844 25.28 14.5232 25.14C14.1773 25.04 13.8794 24.855 13.6296 24.585C13.3798 24.315 13.2117 23.995 13.1252 23.625C13.0003 23.125 12.909 22.38 12.8514 21.39C12.8225 20.81 12.8033 20.22 12.7937 19.62V19.38C12.8033 18.78 12.8225 18.19 12.8514 17.61C12.909 16.62 13.0003 15.875 13.1252 15.375C13.2117 15.005 13.3798 14.685 13.6296 14.415C13.8794 14.145 14.1773 13.96 14.5232 13.86C14.9844 13.72 15.902 13.62 17.276 13.56C18.0735 13.53 18.9238 13.51 19.827 13.5H20.1729ZM18.5587 16.875V22.125L22.8825 19.5L18.5587 16.875Z" fill="#8B939A"/>
</svg>


