<svg width="40" height="40" viewBox="0 0 40 40" fill="none" xmlns="http://www.w3.org/2000/svg">
<path d="M12 0.5H28C34.3513 0.5 39.5 5.64873 39.5 12V28C39.5 34.3513 34.3513 39.5 28 39.5H12C5.64873 39.5 0.5 34.3513 0.5 28V12C0.5 5.64873 5.64873 0.5 12 0.5Z" fill="#F1F5F9"/>
<path d="M12 0.5H28C34.3513 0.5 39.5 5.64873 39.5 12V28C39.5 34.3513 34.3513 39.5 28 39.5H12C5.64873 39.5 0.5 34.3513 0.5 28V12C0.5 5.64873 5.64873 0.5 12 0.5Z" stroke="#E2E8F0"/>
<path d="M24.0928 12.7951L20.4897 17.0851L17.3766 12.7951H12.8799L18.2557 20.1301L13.1537 26.2051H15.3444L19.279 21.5101L22.7236 26.2051H27.1194L21.513 18.4801L26.2835 12.7951H24.0928ZM23.3289 24.8401L15.4309 14.0851H16.728L24.5396 24.8401H23.3289Z" fill="#64748B"/>
</svg>
