<svg width="40" height="40" viewBox="0 0 40 40" fill="none" xmlns="http://www.w3.org/2000/svg">
<path d="M12 0.5H28C34.3513 0.5 39.5 5.64873 39.5 12V28C39.5 34.3513 34.3513 39.5 28 39.5H12C5.64873 39.5 0.5 34.3513 0.5 28V12C0.5 5.64873 5.64873 0.5 12 0.5Z" fill="#F1F5F9"/>
<path d="M12 0.5H28C34.3513 0.5 39.5 5.64873 39.5 12V28C39.5 34.3513 34.3513 39.5 28 39.5H12C5.64873 39.5 0.5 34.3513 0.5 28V12C0.5 5.64873 5.64873 0.5 12 0.5Z" stroke="#E2E8F0"/>
<path d="M16.0221 14.25C16.0125 14.56 15.926 14.84 15.7627 15.09C15.5993 15.34 15.3831 15.5225 15.1141 15.6375C14.8451 15.7525 14.5664 15.78 14.2782 15.72C13.9899 15.66 13.7425 15.52 13.5359 15.3C13.3294 15.08 13.202 14.82 13.154 14.52C13.106 14.22 13.1396 13.93 13.2549 13.65C13.3702 13.37 13.5528 13.1475 13.8026 12.9825C14.0524 12.8175 14.3262 12.74 14.6241 12.75C15.0084 12.76 15.3375 12.91 15.6113 13.2C15.8852 13.49 16.0221 13.84 16.0221 14.25ZM16.0653 16.86H13.1828V26.25H16.0653V16.86ZM20.6197 16.86H17.7516V26.25H20.5909V21.33C20.5909 20.8 20.7062 20.35 20.9368 19.98C21.1577 19.64 21.4412 19.405 21.7871 19.275C22.133 19.145 22.4789 19.135 22.8248 19.245C23.1707 19.355 23.4493 19.575 23.6607 19.905C23.9009 20.285 24.021 20.76 24.021 21.33V26.25H26.8747V20.31C26.8747 19.43 26.6921 18.685 26.327 18.075C26.01 17.545 25.568 17.145 25.0011 16.875C24.4822 16.645 23.9201 16.545 23.3148 16.575C22.7287 16.605 22.1858 16.7575 21.6862 17.0325C21.1866 17.3075 20.8215 17.67 20.5909 18.12L20.6197 16.86Z" fill="#64748B"/>
</svg>
