<svg width="48" height="48" viewBox="0 0 48 48" fill="none" xmlns="http://www.w3.org/2000/svg">
<path d="M0 12C0 5.37258 5.37258 0 12 0H36C42.6274 0 48 5.37258 48 12V36C48 42.6274 42.6274 48 36 48H12C5.37258 48 0 42.6274 0 36V12Z" fill="#F4F5F4"/>
<path d="M24 31.8333C22.912 31.8333 21.872 31.6166 20.88 31.1833C19.9307 30.7611 19.0853 30.1639 18.344 29.3916C17.6027 28.6194 17.0293 27.7389 16.624 26.75C16.208 25.7166 16 24.6333 16 23.5C16 22.3666 16.208 21.2833 16.624 20.25C17.0293 19.2611 17.6027 18.3805 18.344 17.6083C19.0853 16.8361 19.9307 16.2389 20.88 15.8166C21.872 15.3833 22.912 15.1666 24 15.1666C25.088 15.1666 26.128 15.3833 27.12 15.8166C28.0693 16.2389 28.9147 16.8361 29.656 17.6083C30.3973 18.3805 30.9707 19.2611 31.376 20.25C31.792 21.2833 32 22.3666 32 23.5C32 24.6333 31.792 25.7166 31.376 26.75C30.9707 27.7389 30.3973 28.6194 29.656 29.3916C28.9147 30.1639 28.0693 30.7611 27.12 31.1833C26.128 31.6166 25.088 31.8333 24 31.8333ZM24 30.1666C25.1627 30.1666 26.24 29.8611 27.232 29.25C28.192 28.6611 28.9547 27.8666 29.52 26.8666C30.1067 25.8333 30.4 24.7111 30.4 23.5C30.4 22.2889 30.1067 21.1666 29.52 20.1333C28.9547 19.1333 28.192 18.3389 27.232 17.75C26.24 17.1389 25.1627 16.8333 24 16.8333C22.8373 16.8333 21.76 17.1389 20.768 17.75C19.808 18.3389 19.0453 19.1333 18.48 20.1333C17.8933 21.1666 17.6 22.2889 17.6 23.5C17.6 24.7111 17.8933 25.8333 18.48 26.8666C19.0453 27.8666 19.808 28.6611 20.768 29.25C21.76 29.8611 22.8373 30.1666 24 30.1666ZM24.8 23.5H28V25.1666H23.2V19.3333H24.8V23.5Z" fill="#1D3E4B"/>
</svg>


