<svg width="24" height="24" viewBox="0 0 24 24" fill="none" xmlns="http://www.w3.org/2000/svg">
<path d="M0 12C0 5.37258 5.37258 0 12 0C18.6274 0 24 5.37258 24 12C24 18.6274 18.6274 24 12 24C5.37258 24 0 18.6274 0 12Z" fill="#F4F5F4"/>
<path d="M11.8098 13.0384L12.5947 13.8551L17.3488 8.92005L18.1337 9.74839L12.5947 15.5117L9.02911 11.7901L9.8252 10.9734L11.8098 13.0384ZM11.8098 11.3817L14.5793 8.48839L15.3754 9.31672L12.5947 12.2101L11.8098 11.3817ZM10.2288 14.6834L9.43276 15.5117L5.86719 11.7901L6.65206 10.9734L7.44815 11.7901L10.2288 14.6834Z" fill="#1D3E4B"/>
</svg>


