<svg width="148" height="44" viewBox="0 0 148 44" fill="none" xmlns="http://www.w3.org/2000/svg">
<g filter="url(#filter0_d_111_1237)">
<path d="M2 13C2 6.37258 7.37258 1 14 1H30C36.6274 1 42 6.37258 42 13V29C42 35.6274 36.6274 41 30 41H14C7.37258 41 2 35.6274 2 29V13Z" fill="white" shape-rendering="crispEdges"/>
<path d="M22.5719 15.1668C23.14 15.1668 23.5511 15.1707 23.8053 15.1785L24.3098 15.2018C24.8331 15.2252 25.2853 15.3146 25.6665 15.4702C26.0478 15.6257 26.3804 15.8513 26.6644 16.1468C26.9485 16.4424 27.1653 16.7885 27.3148 17.1852C27.4643 17.5818 27.5502 18.0524 27.5727 18.5968L27.5951 19.1218C27.6026 19.3941 27.6063 19.8218 27.6063 20.4052V21.5952C27.6063 22.1863 27.6026 22.6141 27.5951 22.8785L27.5727 23.4035C27.5502 23.9479 27.4643 24.4185 27.3148 24.8152C27.1653 25.2118 26.9485 25.5579 26.6644 25.8535C26.3804 26.1491 26.0478 26.3746 25.6665 26.5302C25.2853 26.6857 24.8331 26.7752 24.3098 26.7985L23.8053 26.8218C23.5436 26.8296 23.1325 26.8335 22.5719 26.8335H21.4282C20.8601 26.8335 20.449 26.8296 20.1948 26.8218L19.6903 26.7985C19.167 26.7752 18.7148 26.6857 18.3336 26.5302C17.9523 26.3746 17.6197 26.1491 17.3356 25.8535C17.0516 25.5579 16.8348 25.2118 16.6853 24.8152C16.5358 24.4185 16.4499 23.9479 16.4274 23.4035L16.405 22.8785C16.3975 22.6063 16.3938 22.1785 16.3938 21.5952V20.4052C16.3938 19.8141 16.3975 19.3863 16.405 19.1218L16.4274 18.5968C16.4499 18.0524 16.5358 17.5818 16.6853 17.1852C16.8348 16.7885 17.0516 16.4424 17.3356 16.1468C17.6197 15.8513 17.9523 15.6257 18.3336 15.4702C18.7148 15.3146 19.167 15.2252 19.6903 15.2018L20.1948 15.1785C20.4565 15.1707 20.8676 15.1668 21.4282 15.1668H22.5719ZM22 18.0835C21.4917 18.0835 21.0227 18.2138 20.5929 18.4743C20.1631 18.7349 19.823 19.0888 19.5725 19.536C19.3221 19.9832 19.1969 20.4713 19.1969 21.0002C19.1969 21.5291 19.3221 22.0171 19.5725 22.4643C19.823 22.9116 20.1631 23.2654 20.5929 23.526C21.0227 23.7866 21.4917 23.9168 22 23.9168C22.5083 23.9168 22.9774 23.7866 23.4072 23.526C23.837 23.2654 24.1771 22.9116 24.4276 22.4643C24.678 22.0171 24.8032 21.5291 24.8032 21.0002C24.8032 20.4713 24.678 19.9832 24.4276 19.536C24.1771 19.0888 23.837 18.7349 23.4072 18.4743C22.9774 18.2138 22.5083 18.0835 22 18.0835ZM22 19.2502C22.3065 19.2502 22.5887 19.3279 22.8466 19.4835C23.1045 19.6391 23.3082 19.851 23.4577 20.1193C23.6072 20.3877 23.6819 20.6813 23.6819 21.0002C23.6819 21.3191 23.6072 21.6127 23.4577 21.881C23.3082 22.1493 23.1045 22.3613 22.8466 22.5168C22.5887 22.6724 22.3065 22.7502 22 22.7502C21.6936 22.7502 21.4114 22.6724 21.1535 22.5168C20.8956 22.3613 20.6919 22.1493 20.5424 21.881C20.3929 21.6127 20.3182 21.3191 20.3182 21.0002C20.3182 20.6813 20.3929 20.3877 20.5424 20.1193C20.6919 19.851 20.8956 19.6391 21.1535 19.4835C21.4114 19.3279 21.6936 19.2502 22 19.2502ZM24.9377 17.2085C24.7508 17.2085 24.5883 17.2804 24.45 17.4243C24.3117 17.5682 24.2425 17.7393 24.2425 17.9377C24.2425 18.136 24.3117 18.3071 24.45 18.451C24.5883 18.5949 24.7527 18.6668 24.9433 18.6668C25.1339 18.6668 25.2984 18.5949 25.4367 18.451C25.575 18.3071 25.6441 18.136 25.6441 17.9377C25.6441 17.7393 25.575 17.5682 25.4367 17.4243C25.2984 17.2804 25.1321 17.2085 24.9377 17.2085Z" fill="#94A3B8"/>
</g>
<g filter="url(#filter1_d_111_1237)">
<path d="M54 13C54 6.37258 59.3726 1 66 1H82C88.6274 1 94 6.37258 94 13V29C94 35.6274 88.6274 41 82 41H66C59.3726 41 54 35.6274 54 29V13Z" fill="white" shape-rendering="crispEdges"/>
<path d="M77.1843 15.7848L74.3811 19.1215L71.9592 15.7848H68.4609L72.6432 21.4898L68.674 26.2148H70.3783L73.4393 22.5632L76.1191 26.2148H79.5389L75.1772 20.2065L78.8886 15.7848H77.1843ZM76.59 25.1532L70.4455 16.7882H71.4547L77.5318 25.1532H76.59Z" fill="#94A3B8"/>
</g>
<g filter="url(#filter2_d_111_1237)">
<path d="M106 13C106 6.37258 111.373 1 118 1H134C140.627 1 146 6.37258 146 13V29C146 35.6274 140.627 41 134 41H118C111.373 41 106 35.6274 106 29V13Z" fill="white" shape-rendering="crispEdges"/>
<path d="M122.905 16.9167C122.898 17.1578 122.83 17.3756 122.703 17.57C122.576 17.7644 122.408 17.9064 122.199 17.9958C121.989 18.0853 121.773 18.1067 121.548 18.06C121.324 18.0133 121.132 17.9044 120.971 17.7333C120.81 17.5622 120.711 17.36 120.674 17.1267C120.636 16.8933 120.663 16.6678 120.752 16.45C120.842 16.2322 120.984 16.0592 121.178 15.9308C121.373 15.8025 121.586 15.7422 121.817 15.75C122.116 15.7578 122.372 15.8744 122.585 16.1C122.798 16.3256 122.905 16.5978 122.905 16.9167ZM122.939 18.9467H120.696V26.25H122.939V18.9467ZM126.482 18.9467H124.251V26.25H126.459V22.4233C126.459 22.0111 126.549 21.6611 126.728 21.3733C126.9 21.1089 127.121 20.9261 127.39 20.825C127.659 20.7239 127.928 20.7161 128.197 20.8017C128.466 20.8872 128.683 21.0583 128.848 21.315C129.035 21.6106 129.128 21.98 129.128 22.4233V26.25H131.348V21.63C131.348 20.9456 131.206 20.3661 130.922 19.8917C130.675 19.4794 130.331 19.1683 129.89 18.9583C129.487 18.7794 129.049 18.7017 128.579 18.725C128.123 18.7483 127.7 18.8669 127.312 19.0808C126.923 19.2947 126.639 19.5767 126.459 19.9267L126.482 18.9467Z" fill="#94A3B8"/>
</g>
<defs>
<filter id="filter0_d_111_1237" x="0" y="0" width="44" height="44" filterUnits="userSpaceOnUse" color-interpolation-filters="sRGB">
<feFlood flood-opacity="0" result="BackgroundImageFix"/>
<feColorMatrix in="SourceAlpha" type="matrix" values="0 0 0 0 0 0 0 0 0 0 0 0 0 0 0 0 0 0 127 0" result="hardAlpha"/>
<feOffset dy="1"/>
<feGaussianBlur stdDeviation="1"/>
<feComposite in2="hardAlpha" operator="out"/>
<feColorMatrix type="matrix" values="0 0 0 0 0 0 0 0 0 0 0 0 0 0 0 0 0 0 0.05 0"/>
<feBlend mode="normal" in2="BackgroundImageFix" result="effect1_dropShadow_111_1237"/>
<feBlend mode="normal" in="SourceGraphic" in2="effect1_dropShadow_111_1237" result="shape"/>
</filter>
<filter id="filter1_d_111_1237" x="52" y="0" width="44" height="44" filterUnits="userSpaceOnUse" color-interpolation-filters="sRGB">
<feFlood flood-opacity="0" result="BackgroundImageFix"/>
<feColorMatrix in="SourceAlpha" type="matrix" values="0 0 0 0 0 0 0 0 0 0 0 0 0 0 0 0 0 0 127 0" result="hardAlpha"/>
<feOffset dy="1"/>
<feGaussianBlur stdDeviation="1"/>
<feComposite in2="hardAlpha" operator="out"/>
<feColorMatrix type="matrix" values="0 0 0 0 0 0 0 0 0 0 0 0 0 0 0 0 0 0 0.05 0"/>
<feBlend mode="normal" in2="BackgroundImageFix" result="effect1_dropShadow_111_1237"/>
<feBlend mode="normal" in="SourceGraphic" in2="effect1_dropShadow_111_1237" result="shape"/>
</filter>
<filter id="filter2_d_111_1237" x="104" y="0" width="44" height="44" filterUnits="userSpaceOnUse" color-interpolation-filters="sRGB">
<feFlood flood-opacity="0" result="BackgroundImageFix"/>
<feColorMatrix in="SourceAlpha" type="matrix" values="0 0 0 0 0 0 0 0 0 0 0 0 0 0 0 0 0 0 127 0" result="hardAlpha"/>
<feOffset dy="1"/>
<feGaussianBlur stdDeviation="1"/>
<feComposite in2="hardAlpha" operator="out"/>
<feColorMatrix type="matrix" values="0 0 0 0 0 0 0 0 0 0 0 0 0 0 0 0 0 0 0.05 0"/>
<feBlend mode="normal" in2="BackgroundImageFix" result="effect1_dropShadow_111_1237"/>
<feBlend mode="normal" in="SourceGraphic" in2="effect1_dropShadow_111_1237" result="shape"/>
</filter>
</defs>
</svg>
