<svg width="40" height="40" viewBox="0 0 40 40" fill="none" xmlns="http://www.w3.org/2000/svg">
<path d="M0 12C0 5.37258 5.37258 0 12 0H28C34.6274 0 40 5.37258 40 12V28C40 34.6274 34.6274 40 28 40H12C5.37258 40 0 34.6274 0 28V12Z" fill="#362A9B"/>
<path d="M18.5592 12.575C18.2325 12.465 17.8986 12.44 17.5575 12.5C17.2164 12.56 16.9066 12.6925 16.6279 12.8975C16.3493 13.1025 16.1331 13.37 15.9794 13.7L15.3884 14.885C15.3212 15.025 15.2203 15.13 15.0858 15.2L13.9472 15.815C13.6301 15.975 13.3731 16.2 13.1761 16.49C12.9792 16.78 12.8518 17.1025 12.7942 17.4575C12.7365 17.8125 12.7606 18.16 12.8663 18.5L13.2554 19.775C13.3034 19.925 13.3034 20.075 13.2554 20.225L12.8663 21.5C12.7606 21.84 12.7365 22.1875 12.7942 22.5425C12.8518 22.8975 12.9792 23.22 13.1761 23.51C13.3731 23.8 13.6301 24.025 13.9472 24.185L15.0858 24.8C15.2203 24.87 15.3212 24.975 15.3884 25.115L15.9794 26.3C16.1331 26.63 16.3493 26.8975 16.6279 27.1025C16.9066 27.3075 17.2164 27.44 17.5575 27.5C17.8986 27.56 18.2325 27.535 18.5592 27.425L19.7843 27.02C19.9284 26.97 20.0725 26.97 20.2166 27.02L21.4417 27.425C21.7684 27.535 22.1023 27.56 22.4434 27.5C22.7845 27.44 23.0943 27.3075 23.373 27.1025C23.6516 26.8975 23.8678 26.63 24.0215 26.3L24.6124 25.115C24.6797 24.975 24.7806 24.87 24.9151 24.8L26.0537 24.185C26.3708 24.025 26.6278 23.8 26.8248 23.51C27.0217 23.22 27.149 22.8975 27.2067 22.5425C27.2643 22.1875 27.2403 21.84 27.1346 21.5L26.7455 20.225C26.6975 20.075 26.6975 19.925 26.7455 19.775L27.1346 18.5C27.2403 18.16 27.2643 17.8125 27.2067 17.4575C27.149 17.1025 27.0217 16.78 26.8248 16.49C26.6278 16.2 26.3708 15.975 26.0537 15.815L24.9151 15.2C24.7806 15.13 24.6797 15.025 24.6124 14.885L24.0215 13.7C23.8678 13.37 23.6516 13.1025 23.373 12.8975C23.0943 12.6925 22.7845 12.56 22.4434 12.5C22.1023 12.44 21.7684 12.465 21.4417 12.575L20.2166 12.98C20.0725 13.03 19.9284 13.03 19.7843 12.98L18.5592 12.575ZM16.2244 19.82L17.2477 18.755L19.2798 20.885L23.3586 16.64L24.3818 17.69L19.2798 23L16.2244 19.82Z" fill="white"/>
</svg>
