<svg width="40" height="40" viewBox="0 0 40 40" fill="none" xmlns="http://www.w3.org/2000/svg">
<path d="M0 12C0 5.37258 5.37258 0 12 0H28C34.6274 0 40 5.37258 40 12V28C40 34.6274 34.6274 40 28 40H12C5.37258 40 0 34.6274 0 28V12Z" fill="#362A9B"/>
<g clip-path="url(#clip0_111_152)">
<path d="M25.76 16.8334C25.9904 16.8334 26.2037 16.8934 26.4 17.0134C26.5962 17.1334 26.752 17.2956 26.8672 17.5C26.9824 17.7045 27.04 17.9267 27.04 18.1667V20.8334C27.04 21.0734 26.9824 21.2956 26.8672 21.5C26.752 21.7045 26.5962 21.8667 26.4 21.9867C26.2037 22.1067 25.9904 22.1667 25.76 22.1667H25.0816C24.9792 23.0378 24.689 23.8289 24.2112 24.54C23.7333 25.2512 23.1317 25.8067 22.4064 26.2067C21.6554 26.6245 20.8533 26.8334 20 26.8334V25.5C20.6912 25.5 21.3354 25.3178 21.9328 24.9534C22.513 24.5978 22.9738 24.1178 23.3152 23.5134C23.665 22.8912 23.84 22.22 23.84 21.5V17.5C23.84 16.78 23.665 16.1089 23.3152 15.4867C22.9738 14.8823 22.513 14.4023 21.9328 14.0467C21.3354 13.6823 20.6912 13.5 20 13.5C19.3088 13.5 18.6645 13.6823 18.0672 14.0467C17.4869 14.4023 17.0261 14.8823 16.6848 15.4867C16.3349 16.1089 16.16 16.78 16.16 17.5V22.1667H14.24C14.0096 22.1667 13.7962 22.1067 13.6 21.9867C13.4037 21.8667 13.248 21.7045 13.1328 21.5C13.0176 21.2956 12.96 21.0734 12.96 20.8334V18.1667C12.96 17.9267 13.0176 17.7045 13.1328 17.5C13.248 17.2956 13.4037 17.1334 13.6 17.0134C13.7962 16.8934 14.0096 16.8334 14.24 16.8334H14.9184C15.0208 15.9623 15.3109 15.1712 15.7888 14.46C16.2666 13.7489 16.8682 13.1934 17.5936 12.7934C18.3445 12.3756 19.1466 12.1667 20 12.1667C20.8533 12.1667 21.6554 12.3756 22.4064 12.7934C23.1317 13.1934 23.7333 13.7489 24.2112 14.46C24.689 15.1712 24.9792 15.9623 25.0816 16.8334H25.76ZM17.2864 22.02L17.9648 20.8867C18.5877 21.2956 19.2661 21.5 20 21.5C20.7338 21.5 21.4122 21.2956 22.0352 20.8867L22.7136 22.02C22.3125 22.2867 21.8816 22.4889 21.4208 22.6267C20.96 22.7645 20.4864 22.8334 20 22.8334C19.5136 22.8334 19.04 22.7645 18.5792 22.6267C18.1184 22.4889 17.6874 22.2867 17.2864 22.02Z" fill="white"/>
</g>
<defs>
<clipPath id="clip0_111_152">
<rect width="16" height="16" fill="white" transform="translate(12 11.5)"/>
</clipPath>
</defs>
</svg>
