<svg width="76" height="36" viewBox="0 0 76 36" fill="none" xmlns="http://www.w3.org/2000/svg">
<path d="M21.6352 12.04L18.4352 15.8533L15.6704 12.04H11.6768L16.4512 18.56L11.92 23.96H13.8656L17.36 19.7867L20.4192 23.96H24.3232L19.344 17.0933L23.5808 12.04H21.6352ZM20.9568 22.7467L13.9424 13.1867H15.0944L22.032 22.7467H20.9568Z" fill="#94A3B8"/>
<path d="M54.4671 13.3333C54.4586 13.6089 54.3818 13.8578 54.2367 14.08C54.0917 14.3022 53.8997 14.4644 53.6607 14.5667C53.4218 14.6689 53.1743 14.6933 52.9183 14.64C52.6623 14.5867 52.4426 14.4622 52.2591 14.2667C52.0757 14.0711 51.9626 13.84 51.9199 13.5733C51.8773 13.3067 51.9071 13.0489 52.0095 12.8C52.1119 12.5511 52.2741 12.3533 52.4959 12.2067C52.7178 12.06 52.961 11.9911 53.2255 12C53.5669 12.0089 53.8591 12.1422 54.1023 12.4C54.3455 12.6578 54.4671 12.9689 54.4671 13.3333ZM54.5055 15.6533H51.9455V24H54.5055V15.6533ZM58.5503 15.6533H56.0031V24H58.5247V19.6267C58.5247 19.1556 58.6271 18.7556 58.8319 18.4267C59.0282 18.1244 59.2799 17.9156 59.5871 17.8C59.8943 17.6844 60.2015 17.6756 60.5087 17.7733C60.8159 17.8711 61.0634 18.0667 61.2511 18.36C61.4645 18.6978 61.5711 19.12 61.5711 19.6267V24H64.1055V18.72C64.1055 17.9378 63.9434 17.2756 63.6191 16.7333C63.3375 16.2622 62.945 15.9067 62.4415 15.6667C61.9807 15.4622 61.4815 15.3733 60.9439 15.4C60.4234 15.4267 59.9413 15.5622 59.4975 15.8067C59.0538 16.0511 58.7295 16.3733 58.5247 16.7733L58.5503 15.6533Z" fill="#94A3B8"/>
</svg>
