<svg width="48" height="48" viewBox="0 0 48 48" fill="none" xmlns="http://www.w3.org/2000/svg">
<path d="M0 24C0 10.7452 10.7452 0 24 0C37.2548 0 48 10.7452 48 24C48 37.2548 37.2548 48 24 48C10.7452 48 0 37.2548 0 24Z" fill="#D9D6F4"/>
<path d="M29.7654 31.875H18.2354V30.375C18.2354 29.695 18.3963 29.0675 18.7182 28.4925C19.04 27.9175 19.4772 27.4625 20.0297 27.1275C20.5822 26.7925 21.1851 26.625 21.8385 26.625H26.1622C26.8156 26.625 27.4185 26.7925 27.971 27.1275C28.5235 27.4625 28.9607 27.9175 29.2825 28.4925C29.6044 29.0675 29.7654 29.695 29.7654 30.375V31.875ZM24.0004 25.125C23.2221 25.125 22.4966 24.92 21.8241 24.51C21.1707 24.11 20.6518 23.57 20.2675 22.89C19.8736 22.19 19.6766 21.435 19.6766 20.625C19.6766 19.815 19.8736 19.06 20.2675 18.36C20.6518 17.68 21.1707 17.14 21.8241 16.74C22.4966 16.33 23.2221 16.125 24.0004 16.125C24.7786 16.125 25.5041 16.33 26.1766 16.74C26.83 17.14 27.3489 17.68 27.7332 18.36C28.1271 19.06 28.3241 19.815 28.3241 20.625C28.3241 21.435 28.1271 22.19 27.7332 22.89C27.3489 23.57 26.83 24.11 26.1766 24.51C25.5041 24.92 24.7786 25.125 24.0004 25.125Z" fill="#362A9B"/>
</svg>
