<svg width="48" height="48" viewBox="0 0 48 48" fill="none" xmlns="http://www.w3.org/2000/svg">
<path d="M0 12C0 5.37258 5.37258 0 12 0H36C42.6274 0 48 5.37258 48 12V36C48 42.6274 42.6274 48 36 48H12C5.37258 48 0 42.6274 0 36V12Z" fill="#D9D6F4"/>
<path d="M24 31.8333C22.912 31.8333 21.872 31.6166 20.88 31.1833C19.9307 30.7611 19.0853 30.1639 18.344 29.3916C17.6027 28.6194 17.0293 27.7389 16.624 26.75C16.208 25.7166 16 24.6333 16 23.5C16 22.3666 16.208 21.2833 16.624 20.25C17.0293 19.2611 17.6027 18.3805 18.344 17.6083C19.0853 16.8361 19.9307 16.2389 20.88 15.8166C21.872 15.3833 22.912 15.1666 24 15.1666C25.088 15.1666 26.128 15.3833 27.12 15.8166C28.0693 16.2389 28.9147 16.8361 29.656 17.6083C30.3973 18.3805 30.9707 19.2611 31.376 20.25C31.792 21.2833 32 22.3666 32 23.5C32 24.6333 31.792 25.7166 31.376 26.75C30.9707 27.7389 30.3973 28.6194 29.656 29.3916C28.9147 30.1639 28.0693 30.7611 27.12 31.1833C26.128 31.6166 25.088 31.8333 24 31.8333ZM22.176 29.8833C21.376 28.1278 20.9227 26.2778 20.816 24.3333H17.648C17.7547 25.2 18.0133 26.0111 18.424 26.7666C18.8347 27.5222 19.3627 28.1694 20.008 28.7083C20.6533 29.2472 21.376 29.6389 22.176 29.8833ZM22.432 24.3333C22.5493 26.3333 23.072 28.2111 24 29.9666C24.928 28.2111 25.4507 26.3333 25.568 24.3333H22.432ZM30.352 24.3333H27.184C27.0773 26.2778 26.6293 28.1278 25.84 29.8833C26.6293 29.6389 27.3467 29.2472 27.992 28.7083C28.6373 28.1694 29.1653 27.5222 29.576 26.7666C29.9867 26.0111 30.2453 25.2 30.352 24.3333ZM17.648 22.6666H20.816C20.9227 20.7222 21.376 18.8722 22.176 17.1166C21.376 17.3611 20.6533 17.7528 20.008 18.2916C19.3627 18.8305 18.8347 19.4778 18.424 20.2333C18.0133 20.9889 17.7547 21.8 17.648 22.6666ZM22.432 22.6666H25.568C25.4507 20.6666 24.928 18.7889 24 17.0333C23.072 18.7889 22.5493 20.6666 22.432 22.6666ZM25.84 17.1166C26.6293 18.8722 27.0773 20.7222 27.184 22.6666H30.352C30.2453 21.8 29.9867 20.9889 29.576 20.2333C29.1653 19.4778 28.6373 18.8305 27.992 18.2916C27.3467 17.7528 26.6293 17.3611 25.84 17.1166Z" fill="#362A9B"/>
</svg>
