<svg width="76" height="16" viewBox="0 0 76 16" fill="none" xmlns="http://www.w3.org/2000/svg">
<g clip-path="url(#clip0_111_177)">
<path d="M6.00003 10.95L2.61123 12.93L3.36963 8.95999L0.518433 6.21999L4.37763 5.73999L6.00003 2.06999L7.62243 5.73999L11.4816 6.21999L8.63043 8.95999L9.38883 12.93L6.00003 10.95Z" fill="#4335C2"/>
</g>
<g clip-path="url(#clip1_111_177)">
<path d="M22 10.95L18.6112 12.93L19.3696 8.95999L16.5184 6.21999L20.3776 5.73999L22 2.06999L23.6224 5.73999L27.4816 6.21999L24.6304 8.95999L25.3888 12.93L22 10.95Z" fill="#4335C2"/>
</g>
<g clip-path="url(#clip2_111_177)">
<path d="M38 10.95L34.6112 12.93L35.3696 8.95999L32.5184 6.21999L36.3776 5.73999L38 2.06999L39.6224 5.73999L43.4816 6.21999L40.6304 8.95999L41.3888 12.93L38 10.95Z" fill="#4335C2"/>
</g>
<g clip-path="url(#clip3_111_177)">
<path d="M54 10.95L50.6112 12.93L51.3696 8.95999L48.5184 6.21999L52.3776 5.73999L54 2.06999L55.6224 5.73999L59.4816 6.21999L56.6304 8.95999L57.3888 12.93L54 10.95Z" fill="#4335C2"/>
</g>
<g clip-path="url(#clip4_111_177)">
<path d="M70 10.95L66.6112 12.93L67.3696 8.95999L64.5184 6.21999L68.3776 5.73999L70 2.06999L71.6224 5.73999L75.4816 6.21999L72.6304 8.95999L73.3888 12.93L70 10.95Z" fill="#4335C2"/>
</g>
<defs>
<clipPath id="clip0_111_177">
<rect width="12" height="12" fill="white" transform="translate(0 1.5)"/>
</clipPath>
<clipPath id="clip1_111_177">
<rect width="12" height="12" fill="white" transform="translate(16 1.5)"/>
</clipPath>
<clipPath id="clip2_111_177">
<rect width="12" height="12" fill="white" transform="translate(32 1.5)"/>
</clipPath>
<clipPath id="clip3_111_177">
<rect width="12" height="12" fill="white" transform="translate(48 1.5)"/>
</clipPath>
<clipPath id="clip4_111_177">
<rect width="12" height="12" fill="white" transform="translate(64 1.5)"/>
</clipPath>
</defs>
</svg>
