<svg width="48" height="48" viewBox="0 0 48 48" fill="none" xmlns="http://www.w3.org/2000/svg">
<path d="M0 12C0 5.37258 5.37258 0 12 0H36C42.6274 0 48 5.37258 48 12V36C48 42.6274 42.6274 48 36 48H12C5.37258 48 0 42.6274 0 36V12Z" fill="#F4F5F4"/>
<path d="M24.336 17.6667H31.2C31.424 17.6667 31.6133 17.7472 31.768 17.9083C31.9227 18.0694 32 18.2667 32 18.5V30.1667C32 30.4 31.9227 30.5972 31.768 30.7583C31.6133 30.9194 31.424 31 31.2 31H16.8C16.576 31 16.3867 30.9194 16.232 30.7583C16.0773 30.5972 16 30.4 16 30.1667V16.8333C16 16.6 16.0773 16.4028 16.232 16.2417C16.3867 16.0806 16.576 16 16.8 16H22.736L24.336 17.6667ZM17.6 17.6667V29.3333H30.4V19.3333H23.664L22.064 17.6667H17.6ZM23.2 21H24.8V27.6667H23.2V21ZM26.4 23.5H28V27.6667H26.4V23.5ZM20 25.1667H21.6V27.6667H20V25.1667Z" fill="#1D3E4B"/>
</svg>


