<svg width="48" height="48" viewBox="0 0 48 48" fill="none" xmlns="http://www.w3.org/2000/svg">
<path d="M0 12C0 5.37258 5.37258 0 12 0H36C42.6274 0 48 5.37258 48 12V36C48 42.6274 42.6274 48 36 48H12C5.37258 48 0 42.6274 0 36V12Z" fill="#D9D6F4"/>
<path d="M31.2 29.3333H32.8V31H15.2V29.3333H16.8V16.8333C16.8 16.6 16.8773 16.4028 17.032 16.2417C17.1866 16.0806 17.376 16 17.6 16H25.6C25.824 16 26.0133 16.0806 26.168 16.2417C26.3226 16.4028 26.4 16.6 26.4 16.8333V29.3333H29.6V22.6667H28V21H30.4C30.624 21 30.8133 21.0806 30.968 21.2417C31.1226 21.4028 31.2 21.6 31.2 21.8333V29.3333ZM18.4 17.6667V29.3333H24.8V17.6667H18.4ZM20 22.6667H23.2V24.3333H20V22.6667ZM20 19.3333H23.2V21H20V19.3333Z" fill="#362A9B"/>
</svg>
