<svg width="48" height="48" viewBox="0 0 48 48" fill="none" xmlns="http://www.w3.org/2000/svg">
<path d="M0 12C0 5.37258 5.37258 0 12 0H36C42.6274 0 48 5.37258 48 12V36C48 42.6274 42.6274 48 36 48H12C5.37258 48 0 42.6274 0 36V12Z" fill="url(#paint0_linear_111_272)"/>
<path d="M27.9996 26.8666V32.5833C27.9996 32.7055 27.9596 32.8055 27.8796 32.8833C27.7996 32.961 27.7063 32.9999 27.5996 32.9999C27.5249 32.9999 27.4556 32.9833 27.3916 32.9499L23.9996 30.8333L20.6076 32.9499C20.5116 33.0055 20.4103 33.0194 20.3036 32.9916C20.1969 32.9638 20.1169 32.8999 20.0636 32.7999C20.0209 32.7333 19.9996 32.661 19.9996 32.5833V26.8666C19.2529 26.2444 18.6716 25.4888 18.2556 24.5999C17.8183 23.6777 17.5996 22.6999 17.5996 21.6666C17.5996 20.4555 17.8929 19.3333 18.4796 18.2999C19.0449 17.2888 19.8076 16.4888 20.7676 15.8999C21.7596 15.2999 22.8369 14.9999 23.9996 14.9999C25.1623 14.9999 26.2396 15.2999 27.2316 15.8999C28.1916 16.4888 28.9543 17.2888 29.5196 18.2999C30.1063 19.3333 30.3996 20.4555 30.3996 21.6666C30.3996 22.6999 30.1809 23.6777 29.7436 24.5999C29.3276 25.4888 28.7463 26.2444 27.9996 26.8666ZM23.9996 26.6666C24.8636 26.6666 25.6689 26.4388 26.4156 25.9833C27.1409 25.5388 27.7169 24.9388 28.1436 24.1833C28.5809 23.4055 28.7996 22.5638 28.7996 21.6583C28.7996 20.7527 28.5809 19.911 28.1436 19.1333C27.7169 18.3777 27.1409 17.7833 26.4156 17.3499C25.6689 16.8944 24.8636 16.6666 23.9996 16.6666C23.1356 16.6666 22.3303 16.8944 21.5836 17.3499C20.8583 17.7833 20.2823 18.3777 19.8556 19.1333C19.4183 19.911 19.1996 20.7527 19.1996 21.6583C19.1996 22.5638 19.4183 23.4055 19.8556 24.1833C20.2823 24.9388 20.8583 25.5388 21.5836 25.9833C22.3303 26.4388 23.1356 26.6666 23.9996 26.6666ZM23.9996 24.9999C23.4236 24.9999 22.8903 24.8499 22.3996 24.5499C21.9089 24.2499 21.5196 23.8444 21.2316 23.3333C20.9436 22.8222 20.7996 22.2638 20.7996 21.6583C20.7996 21.0527 20.9436 20.4944 21.2316 19.9833C21.5196 19.4722 21.9089 19.0694 22.3996 18.7749C22.8903 18.4805 23.4236 18.3333 23.9996 18.3333C24.5756 18.3333 25.1089 18.4805 25.5996 18.7749C26.0903 19.0694 26.4796 19.4722 26.7676 19.9833C27.0556 20.4944 27.1996 21.0527 27.1996 21.6583C27.1996 22.2638 27.0556 22.8222 26.7676 23.3333C26.4796 23.8444 26.0903 24.2499 25.5996 24.5499C25.1089 24.8499 24.5756 24.9999 23.9996 24.9999Z" fill="white"/>
<defs>
<linearGradient id="paint0_linear_111_272" x1="0" y1="0" x2="48" y2="48" gradientUnits="userSpaceOnUse">
<stop stop-color="#315C67"/>
<stop offset="1" stop-color="#1D3E4B"/>
</linearGradient>
</defs>
</svg>


