<svg width="17" height="24" viewBox="0 0 17 24" fill="none" xmlns="http://www.w3.org/2000/svg">
<g clip-path="url(#clip0_111_1174)">
<path d="M14.4 6C14.5792 6 14.7306 6.06444 14.8544 6.19333C14.9781 6.32222 15.04 6.48 15.04 6.66667V17.3333C15.04 17.52 14.9781 17.6778 14.8544 17.8067C14.7306 17.9356 14.5792 18 14.4 18H2.87996C2.70076 18 2.54929 17.9356 2.42556 17.8067C2.30183 17.6778 2.23996 17.52 2.23996 17.3333V16.6667H13.76V8.86667L8.63996 13.6667L2.23996 7.66667V6.66667C2.23996 6.48 2.30183 6.32222 2.42556 6.19333C2.54929 6.06444 2.70076 6 2.87996 6H14.4ZM6.07996 14V15.3333H0.959961V14H6.07996ZM4.15996 10.6667V12H0.959961V10.6667H4.15996ZM13.4784 7.33333H3.80156L8.63996 11.8667L13.4784 7.33333Z" fill="#362A9B"/>
</g>
<defs>
<clipPath id="clip0_111_1174">
<rect width="16" height="16" fill="white" transform="translate(0 4)"/>
</clipPath>
</defs>
</svg>
