<svg width="16" height="24" viewBox="0 0 16 24" fill="none" xmlns="http://www.w3.org/2000/svg">
<path d="M7.99961 18.1667C7.12921 18.1667 6.29721 17.9934 5.50361 17.6467C4.74414 17.3089 4.06788 16.8311 3.47481 16.2134C2.88174 15.5956 2.42308 14.8911 2.09881 14.1C1.76601 13.2734 1.59961 12.4067 1.59961 11.5C1.59961 10.5934 1.76601 9.72669 2.09881 8.90002C2.42308 8.10891 2.88174 7.40447 3.47481 6.78669C4.06788 6.16891 4.74414 5.69113 5.50361 5.35335C6.29721 5.00669 7.12921 4.83335 7.99961 4.83335C8.87001 4.83335 9.70201 5.00669 10.4956 5.35335C11.2551 5.69113 11.9313 6.16891 12.5244 6.78669C13.1175 7.40447 13.5761 8.10891 13.9004 8.90002C14.2332 9.72669 14.3996 10.5934 14.3996 11.5C14.3996 12.4067 14.2332 13.2734 13.9004 14.1C13.5761 14.8911 13.1175 15.5956 12.5244 16.2134C11.9313 16.8311 11.2551 17.3089 10.4956 17.6467C9.70201 17.9934 8.87001 18.1667 7.99961 18.1667ZM7.99961 16.8334C8.92974 16.8334 9.79161 16.5889 10.5852 16.1C11.3532 15.6289 11.9633 14.9934 12.4156 14.1934C12.8849 13.3667 13.1196 12.4689 13.1196 11.5C13.1196 10.5311 12.8849 9.63335 12.4156 8.80669C11.9633 8.00669 11.3532 7.37113 10.5852 6.90002C9.79161 6.41113 8.92974 6.16669 7.99961 6.16669C7.06948 6.16669 6.20761 6.41113 5.41401 6.90002C4.64601 7.37113 4.03588 8.00669 3.58361 8.80669C3.11428 9.63335 2.87961 10.5311 2.87961 11.5C2.87961 12.4689 3.11428 13.3667 3.58361 14.1934C4.03588 14.9934 4.64601 15.6289 5.41401 16.1C6.20761 16.5889 7.06948 16.8334 7.99961 16.8334ZM7.11641 9.11335L10.2396 11.2734C10.2993 11.3178 10.3356 11.3756 10.3484 11.4467C10.3612 11.5178 10.3505 11.5845 10.3164 11.6467C10.2908 11.6734 10.2652 11.7 10.2396 11.7267L7.11641 13.8867C7.05668 13.9311 6.99268 13.9467 6.92441 13.9334C6.85614 13.92 6.80068 13.8822 6.75801 13.82C6.73241 13.7756 6.71961 13.7267 6.71961 13.6734V9.32669C6.71961 9.25558 6.74521 9.19335 6.79641 9.14002C6.84761 9.08669 6.90734 9.06002 6.97561 9.06002C7.02681 9.06002 7.07374 9.0778 7.11641 9.11335Z" fill="#334155"/>
</svg>
