<svg width="19" height="28" viewBox="0 0 19 28" fill="none" xmlns="http://www.w3.org/2000/svg">
<path d="M6.31301 16.875C6.48596 16.905 6.66371 16.935 6.84627 16.965C7.29786 17.055 7.75426 17.16 8.21546 17.28C8.86882 17.45 9.47895 17.64 10.0458 17.85C10.7569 18.11 11.3862 18.395 11.9339 18.705C12.5776 19.065 13.1061 19.455 13.5193 19.875H14.2399C14.432 19.875 14.5978 19.8025 14.7371 19.6575C14.8764 19.5125 14.9461 19.335 14.9461 19.125V14.58C15.2632 14.49 15.525 14.3125 15.7316 14.0475C15.9382 13.7825 16.039 13.475 16.0342 13.125C16.0294 12.775 15.9261 12.4675 15.7244 12.2025C15.5226 11.9375 15.268 11.76 14.9605 11.67V7.125C14.9605 6.915 14.8884 6.7375 14.7443 6.5925C14.6002 6.4475 14.4272 6.375 14.2255 6.375H13.5193C13.1157 6.795 12.5872 7.185 11.9339 7.545C11.3862 7.855 10.7569 8.14 10.0458 8.4C9.47895 8.61 8.86882 8.8 8.21546 8.97C7.75426 9.09 7.29786 9.195 6.84627 9.285L6.31301 9.375H3.43051C3.16147 9.375 2.91646 9.4425 2.69547 9.5775C2.47448 9.7125 2.30153 9.895 2.17662 10.125C2.05171 10.355 1.98926 10.605 1.98926 10.875V15.375C1.98926 15.645 2.05171 15.895 2.17662 16.125C2.30153 16.355 2.47448 16.5375 2.69547 16.6725C2.91646 16.8075 3.15667 16.875 3.4161 16.875H4.15113L4.87176 20.625H6.31301V16.875ZM7.75426 10.62C8.34997 10.49 8.93128 10.335 9.49817 10.155C11.1508 9.655 12.4864 9.04 13.5048 8.31V17.94C12.4864 17.21 11.1508 16.595 9.49817 16.095C8.93128 15.915 8.34517 15.76 7.73985 15.63V10.62H7.75426ZM3.43051 10.875H6.31301V15.375H3.43051V10.875Z" fill="#8B939A"/>
</svg>


