<svg width="19" height="28" viewBox="0 0 19 28" fill="none" xmlns="http://www.w3.org/2000/svg">
<path d="M1.80151 7.5C1.80151 7.29 1.87117 7.1125 2.01049 6.9675C2.14982 6.8225 2.32036 6.75 2.52214 6.75H15.4934C15.6952 6.75 15.8657 6.8225 16.005 6.9675C16.1444 7.1125 16.214 7.29 16.214 7.5V19.5C16.214 19.71 16.1444 19.8875 16.005 20.0325C15.8657 20.1775 15.6952 20.25 15.4934 20.25H2.52214C2.32036 20.25 2.14982 20.1775 2.01049 20.0325C1.87117 19.8875 1.80151 19.71 1.80151 19.5V7.5ZM6.12526 8.25V18.75H11.8903V8.25H6.12526ZM3.24276 8.25V9.75H4.68401V8.25H3.24276ZM13.3315 8.25V9.75H14.7728V8.25H13.3315ZM3.24276 11.25V12.75H4.68401V11.25H3.24276ZM13.3315 11.25V12.75H14.7728V11.25H13.3315ZM3.24276 14.25V15.75H4.68401V14.25H3.24276ZM13.3315 14.25V15.75H14.7728V14.25H13.3315ZM3.24276 17.25V18.75H4.68401V17.25H3.24276ZM13.3315 17.25V18.75H14.7728V17.25H13.3315Z" fill="#94A3B8"/>
</svg>
