<svg width="16" height="24" viewBox="0 0 16 24" fill="none" xmlns="http://www.w3.org/2000/svg">
<path d="M8.26841 7.33333H13.7596C13.9388 7.33333 14.0903 7.39778 14.214 7.52667C14.3377 7.65556 14.3996 7.81333 14.3996 8V17.3333C14.3996 17.52 14.3377 17.6778 14.214 17.8067C14.0903 17.9356 13.9388 18 13.7596 18H2.23961C2.06041 18 1.90894 17.9356 1.78521 17.8067C1.66148 17.6778 1.59961 17.52 1.59961 17.3333V6.66667C1.59961 6.48 1.66148 6.32222 1.78521 6.19333C1.90894 6.06444 2.06041 6 2.23961 6H6.98841L8.26841 7.33333ZM2.87961 7.33333V16.6667H13.1196V8.66667H7.73081L6.45081 7.33333H2.87961ZM7.35961 10H8.63961V15.3333H7.35961V10ZM9.91961 12H11.1996V15.3333H9.91961V12ZM4.79961 13.3333H6.07961V15.3333H4.79961V13.3333Z" fill="white"/>
</svg>
