<svg width="16" height="24" viewBox="0 0 16 24" fill="none" xmlns="http://www.w3.org/2000/svg">
<path d="M7.11707 13.32V14.6533C6.42587 14.6533 5.7816 14.8356 5.18427 15.2C4.604 15.5556 4.1432 16.0311 3.80187 16.6267C3.452 17.2489 3.27707 17.9245 3.27707 18.6533H1.99707C1.99707 17.6845 2.23174 16.7867 2.70107 15.96C3.15334 15.1511 3.76347 14.5111 4.53147 14.04C5.32507 13.56 6.18694 13.32 7.11707 13.32ZM7.11707 12.6533C6.42587 12.6533 5.7816 12.4711 5.18427 12.1067C4.604 11.7511 4.1432 11.2711 3.80187 10.6667C3.452 10.0445 3.27707 9.37112 3.27707 8.64668C3.27707 7.92223 3.452 7.2489 3.80187 6.62668C4.1432 6.03112 4.604 5.55557 5.18427 5.20001C5.7816 4.83557 6.428 4.65335 7.12347 4.65335C7.81894 4.65335 8.46534 4.83557 9.06267 5.20001C9.6344 5.55557 10.0909 6.03112 10.4323 6.62668C10.7821 7.2489 10.9571 7.92223 10.9571 8.64668C10.9571 9.37112 10.7821 10.0445 10.4323 10.6667C10.0909 11.2711 9.6344 11.7511 9.06267 12.1067C8.46534 12.4711 7.8168 12.6533 7.11707 12.6533ZM7.11707 11.32C7.57787 11.32 8.00454 11.2 8.39707 10.96C8.7896 10.72 9.10107 10.3956 9.33147 9.98668C9.56187 9.57779 9.67707 9.13335 9.67707 8.65335C9.67707 8.17335 9.56187 7.7289 9.33147 7.32001C9.10107 6.91112 8.7896 6.58668 8.39707 6.34668C8.00454 6.10668 7.57787 5.98668 7.11707 5.98668C6.65627 5.98668 6.2296 6.10668 5.83707 6.34668C5.44454 6.58668 5.13307 6.91112 4.90267 7.32001C4.67227 7.7289 4.55707 8.17335 4.55707 8.65335C4.55707 9.13335 4.67227 9.57779 4.90267 9.98668C5.13307 10.3956 5.44454 10.72 5.83707 10.96C6.2296 11.2 6.65627 11.32 7.11707 11.32ZM10.9571 18.32L9.07547 19.3467L9.43387 17.16L7.91067 15.6267L10.0227 15.3067L10.9571 13.32L11.9043 15.3067L14.0035 15.6267L12.4803 17.16L12.8387 19.3467L10.9571 18.32Z" fill="#1D3E4B"/>
</svg>


