<svg width="17" height="24" viewBox="0 0 17 24" fill="none" xmlns="http://www.w3.org/2000/svg">
<path d="M2.23961 6H13.7596C13.9388 6 14.0903 6.06444 14.214 6.19333C14.3377 6.32222 14.3996 6.48 14.3996 6.66667V17.3333C14.3996 17.52 14.3377 17.6778 14.214 17.8067C14.0903 17.9356 13.9388 18 13.7596 18H2.23961C2.06041 18 1.90894 17.9356 1.78521 17.8067C1.66148 17.6778 1.59961 17.52 1.59961 17.3333V6.66667C1.59961 6.48 1.66148 6.32222 1.78521 6.19333C1.90894 6.06444 2.06041 6 2.23961 6ZM2.87961 7.33333V16.6667H13.1196V7.33333H2.87961ZM4.79961 12.6667H6.07961V15.3333H4.79961V12.6667ZM7.35961 8.66667H8.63961V15.3333H7.35961V8.66667ZM9.91961 10.6667H11.1996V15.3333H9.91961V10.6667Z" fill="#1D3E4B"/>
</svg>


