<svg width="16" height="24" viewBox="0 0 16 24" fill="none" xmlns="http://www.w3.org/2000/svg">
<path d="M2.34193 6.90658C2.85393 6.37325 3.45126 6.00436 4.13393 5.79992C4.79953 5.60436 5.47579 5.58214 6.16273 5.73325C6.84966 5.88436 7.46193 6.19992 7.99953 6.67992C8.53713 6.19992 9.14939 5.88436 9.83633 5.73325C10.5233 5.58214 11.1995 5.60436 11.8651 5.79992C12.5478 6.00436 13.143 6.37103 13.6507 6.89992C14.1585 7.42881 14.5105 8.04881 14.7067 8.75992C14.903 9.45325 14.9286 10.1577 14.7835 10.8733C14.6385 11.5888 14.3355 12.2266 13.8747 12.7866L8.90833 17.9733C8.66939 18.2221 8.38139 18.3533 8.04433 18.3666C7.70726 18.3799 7.41499 18.271 7.16753 18.0399L2.12433 12.7866C1.66353 12.2266 1.36059 11.5888 1.21553 10.8733C1.07046 10.1577 1.09606 9.45325 1.29233 8.75992C1.48859 8.04881 1.83846 7.43103 2.34193 6.90658ZM3.25073 7.83992C2.89233 8.21325 2.64699 8.64881 2.51473 9.14658C2.38246 9.64436 2.37179 10.1444 2.48273 10.6466C2.59366 11.1488 2.81553 11.5955 3.14833 11.9866L7.99953 17.0399L11.3915 13.4933L9.12593 11.1466L8.44753 11.8533C8.20859 12.111 7.92273 12.2844 7.58993 12.3733C7.25713 12.4621 6.92646 12.4621 6.59793 12.3733C6.26939 12.2844 5.98139 12.111 5.73393 11.8533C5.48646 11.5955 5.32006 11.2955 5.23473 10.9533C5.14939 10.611 5.14939 10.2666 5.23473 9.91992C5.32006 9.57325 5.48646 9.27547 5.73393 9.02658L7.07793 7.61325C6.71953 7.31992 6.31633 7.12436 5.86833 7.02658C5.42033 6.92881 4.97446 6.94214 4.53073 7.06658C4.08699 7.19103 3.69019 7.4177 3.34033 7.74658L3.25073 7.83992ZM8.67793 9.73325C8.80593 9.59992 8.95739 9.53325 9.13233 9.53325C9.30726 9.53325 9.45873 9.59992 9.58673 9.73325L12.3003 12.5599L12.7483 12.0799C13.1153 11.6977 13.3649 11.2488 13.4971 10.7333C13.6294 10.2177 13.6294 9.70214 13.4971 9.18658C13.3649 8.67103 13.1174 8.22436 12.7547 7.84658C12.3921 7.46881 11.9718 7.21103 11.4939 7.07325C11.0161 6.93547 10.5361 6.92436 10.0539 7.03992C9.57179 7.15547 9.14726 7.39103 8.78033 7.74658L6.64273 9.95992C6.52326 10.0844 6.45926 10.231 6.45073 10.3999C6.44219 10.5688 6.48913 10.7199 6.59153 10.8533L6.64273 10.9066C6.75366 11.031 6.89019 11.0977 7.05233 11.1066C7.21446 11.1155 7.35953 11.0666 7.48753 10.9599L7.55153 10.9066L8.67793 9.73325Z" fill="#1D3E4B"/>
</svg>


