<svg width="17" height="24" viewBox="0 0 17 24" fill="none" xmlns="http://www.w3.org/2000/svg">
<g clip-path="url(#clip0_111_836)">
<path d="M2.23996 17.2668V8.4001C2.23996 8.25788 2.27836 8.12899 2.35516 8.01343C2.43196 7.89787 2.53436 7.81787 2.66236 7.77343L8.84476 5.42676C8.93009 5.39121 9.01329 5.39343 9.09436 5.43343C9.17543 5.47343 9.22876 5.53788 9.25436 5.62676C9.27143 5.66232 9.27996 5.69788 9.27996 5.73343V9.0401L13.3248 10.4401C13.4528 10.4845 13.5573 10.5668 13.6384 10.6868C13.7194 10.8068 13.76 10.9379 13.76 11.0801V17.2668H15.04V18.6001H0.959961V17.2668H2.23996ZM3.51996 17.2668H7.99996V7.1601L3.51996 8.86676V17.2668ZM12.48 17.2668V11.5601L9.27996 10.4401V17.2668H12.48Z" fill="#362A9B"/>
</g>
<defs>
<clipPath id="clip0_111_836">
<rect width="16" height="16" fill="white" transform="translate(0 4)"/>
</clipPath>
</defs>
</svg>
