<svg width="17" height="24" viewBox="0 0 17 24" fill="none" xmlns="http://www.w3.org/2000/svg">
<path d="M13.7596 5.49316C13.9388 5.49316 14.0903 5.55983 14.214 5.69316C14.3377 5.8265 14.3996 5.98205 14.3996 6.15983V15.4932C14.3996 15.6798 14.3377 15.8398 14.214 15.9732C14.0903 16.1065 13.9388 16.1687 13.7596 16.1598H4.45401L1.59961 18.4932V6.15983C1.59961 5.98205 1.66148 5.8265 1.78521 5.69316C1.90894 5.55983 2.06041 5.49316 2.23961 5.49316H13.7596ZM13.1196 6.8265H2.87961V15.7598L4.00601 14.8265H13.1196V6.8265ZM7.05241 8.43983L7.33401 8.9065C6.89028 9.15539 6.58308 9.49316 6.41241 9.91983C6.32708 10.1421 6.28441 10.3909 6.28441 10.6665V10.6798C6.38681 10.6621 6.48921 10.6576 6.59161 10.6665C6.88174 10.6932 7.12708 10.8176 7.32761 11.0398C7.52814 11.2621 7.62841 11.5309 7.62841 11.8465C7.62841 12.1621 7.51961 12.4332 7.30201 12.6598C7.08441 12.8865 6.81774 12.9998 6.50201 12.9998C6.33988 12.9998 6.17988 12.9643 6.02201 12.8932C5.86414 12.8221 5.73401 12.7287 5.63161 12.6132C5.45241 12.4176 5.32441 12.2132 5.24761 11.9998C5.16228 11.7687 5.11961 11.4932 5.11961 11.1732C5.11961 10.5954 5.29668 10.0621 5.65081 9.57316C6.00494 9.08428 6.47214 8.7065 7.05241 8.43983ZM10.2524 8.43983L10.534 8.9065C10.0903 9.15539 9.78308 9.49316 9.61241 9.91983C9.52708 10.1421 9.48441 10.3909 9.48441 10.6665V10.6798C9.58681 10.6621 9.68921 10.6576 9.79161 10.6665C10.0817 10.6932 10.3271 10.8176 10.5276 11.0398C10.7281 11.2621 10.8284 11.5309 10.8284 11.8465C10.8284 12.1621 10.7196 12.4332 10.502 12.6598C10.2844 12.8865 10.0177 12.9998 9.70201 12.9998C9.53988 12.9998 9.37988 12.9643 9.22201 12.8932C9.06414 12.8221 8.93401 12.7287 8.83161 12.6132C8.65241 12.4176 8.52441 12.2132 8.44761 11.9998C8.36228 11.7687 8.31961 11.4932 8.31961 11.1732C8.31961 10.5954 8.49668 10.0621 8.85081 9.57316C9.20494 9.08428 9.67214 8.7065 10.2524 8.43983Z" fill="#1D3E4B"/>
</svg>


