<svg width="17" height="24" viewBox="0 0 17 24" fill="none" xmlns="http://www.w3.org/2000/svg">
<path d="M8.63996 15.2933V16.6667H11.84V18H4.15996V16.6667H7.35996V15.2933C6.52369 15.1867 5.76423 14.8844 5.08156 14.3867C4.39889 13.8889 3.86556 13.2622 3.48156 12.5067C3.08049 11.7244 2.87996 10.8889 2.87996 10V6H13.12V10C13.12 10.8889 12.9194 11.7244 12.5184 12.5067C12.1344 13.2622 11.601 13.8889 10.9184 14.3867C10.2357 14.8844 9.47623 15.1867 8.63996 15.2933ZM4.15996 7.33333V10C4.15996 10.72 4.33489 11.3911 4.68476 12.0133C5.02609 12.6178 5.48689 13.0978 6.06716 13.4533C6.66449 13.8178 7.30876 14 7.99996 14C8.69116 14 9.33543 13.8178 9.93276 13.4533C10.513 13.0978 10.9738 12.6178 11.3152 12.0133C11.665 11.3911 11.84 10.72 11.84 10V7.33333H4.15996ZM0.959961 7.33333H2.23996V10H0.959961V7.33333ZM13.76 7.33333H15.04V10H13.76V7.33333Z" fill="#362A9B"/>
</svg>
