<svg width="31" height="30" viewBox="0 0 31 30" fill="none" xmlns="http://www.w3.org/2000/svg">
<path d="M21.0105 19.3V27.875C21.0105 28.0583 20.9504 28.2083 20.8304 28.325C20.7103 28.4416 20.5702 28.5 20.4102 28.5C20.2981 28.5 20.194 28.475 20.098 28.425L15.0073 25.25L9.91669 28.425C9.77262 28.5083 9.62054 28.5291 9.46046 28.4875C9.30037 28.4458 9.18031 28.35 9.10027 28.2C9.03624 28.1 9.00422 27.9916 9.00422 27.875V19.3C7.88364 18.3666 7.01118 17.2333 6.38686 15.9C5.73051 14.5166 5.40234 13.05 5.40234 11.5C5.40234 9.6833 5.84257 7.99997 6.72303 6.44997C7.57147 4.9333 8.71607 3.7333 10.1568 2.84997C11.6456 1.94997 13.2624 1.49997 15.0073 1.49997C16.7523 1.49997 18.3691 1.94997 19.8579 2.84997C21.2986 3.7333 22.4432 4.9333 23.2917 6.44997C24.1721 7.99997 24.6123 9.6833 24.6123 11.5C24.6123 13.05 24.2842 14.5166 23.6278 15.9C23.0035 17.2333 22.1311 18.3666 21.0105 19.3ZM15.0073 19C16.304 19 17.5126 18.6583 18.6332 17.975C19.7218 17.3083 20.5862 16.4083 21.2266 15.275C21.8829 14.1083 22.2111 12.8458 22.2111 11.4875C22.2111 10.1291 21.8829 8.86663 21.2266 7.69997C20.5862 6.56664 19.7218 5.67497 18.6332 5.02497C17.5126 4.34163 16.304 3.99997 15.0073 3.99997C13.7107 3.99997 12.502 4.34163 11.3815 5.02497C10.2929 5.67497 9.42844 6.56664 8.78811 7.69997C8.13176 8.86663 7.80359 10.1291 7.80359 11.4875C7.80359 12.8458 8.13176 14.1083 8.78811 15.275C9.42844 16.4083 10.2929 17.3083 11.3815 17.975C12.502 18.6583 13.7107 19 15.0073 19ZM15.0073 16.5C14.1429 16.5 13.3425 16.275 12.6061 15.825C11.8697 15.375 11.2854 14.7666 10.8532 14C10.421 13.2333 10.2048 12.3958 10.2048 11.4875C10.2048 10.5791 10.421 9.74163 10.8532 8.97497C11.2854 8.2083 11.8697 7.60413 12.6061 7.16247C13.3425 6.7208 14.1429 6.49997 15.0073 6.49997C15.8718 6.49997 16.6722 6.7208 17.4086 7.16247C18.145 7.60413 18.7293 8.2083 19.1615 8.97497C19.5937 9.74163 19.8098 10.5791 19.8098 11.4875C19.8098 12.3958 19.5937 13.2333 19.1615 14C18.7293 14.7666 18.145 15.375 17.4086 15.825C16.6722 16.275 15.8718 16.5 15.0073 16.5Z" fill="white"/>
</svg>
