<svg width="192" height="72" viewBox="0 0 192 72" fill="none" xmlns="http://www.w3.org/2000/svg">
<path d="M68 12C68 5.37258 73.3726 0 80 0H112C118.627 0 124 5.37258 124 12V44C124 50.6274 118.627 56 112 56H80C73.3726 56 68 50.6274 68 44V12Z" fill="#F4F5F4"/>
<path d="M93.5611 33.5H97.4395C97.5035 32.9267 97.6827 32.3667 97.9771 31.82C98.2331 31.3267 98.6107 30.7933 99.1099 30.22L99.3787 29.92C99.7499 29.52 99.9547 29.3 99.9931 29.26C100.403 28.7267 100.716 28.14 100.934 27.5C101.152 26.86 101.26 26.1933 101.26 25.5C101.26 24.42 100.998 23.4133 100.473 22.48C99.9611 21.5733 99.2699 20.8533 98.3995 20.32C97.5035 19.7733 96.5371 19.5 95.5003 19.5C94.4635 19.5 93.4971 19.7733 92.6011 20.32C91.7307 20.8533 91.0395 21.5733 90.5275 22.48C90.0027 23.4133 89.7403 24.42 89.7403 25.5C89.7403 26.1933 89.8491 26.86 90.0667 27.5C90.2843 28.14 90.5979 28.72 91.0075 29.24C91.0459 29.2933 91.2507 29.52 91.6219 29.92L91.8907 30.22C92.3899 30.7933 92.7675 31.3267 93.0235 31.82C93.3179 32.3667 93.4971 32.9267 93.5611 33.5ZM97.4203 35.5H93.5803V36.5H97.4203V35.5ZM89.5099 30.5C88.9723 29.8067 88.5563 29.04 88.2619 28.2C87.9675 27.3333 87.8203 26.4333 87.8203 25.5C87.8203 24.0467 88.1723 22.7 88.8763 21.46C89.5547 20.26 90.4699 19.3067 91.6219 18.6C92.8123 17.8667 94.1051 17.5 95.5003 17.5C96.8955 17.5 98.1883 17.8667 99.3787 18.6C100.531 19.3067 101.446 20.26 102.124 21.46C102.828 22.7 103.18 24.0467 103.18 25.5C103.18 26.4333 103.033 27.3333 102.739 28.2C102.444 29.04 102.028 29.8067 101.491 30.5C101.401 30.62 101.222 30.82 100.953 31.1C100.454 31.6467 100.102 32.08 99.8971 32.4C99.5259 32.96 99.3403 33.4933 99.3403 34V36.5C99.3403 36.86 99.2539 37.1933 99.0811 37.5C98.9083 37.8067 98.6747 38.05 98.3803 38.23C98.0859 38.41 97.7659 38.5 97.4203 38.5H93.5803C93.2347 38.5 92.9147 38.41 92.6203 38.23C92.3259 38.05 92.0923 37.8067 91.9195 37.5C91.7467 37.1933 91.6603 36.86 91.6603 36.5V34C91.6603 33.4933 91.4747 32.96 91.1035 32.4C90.8987 32.08 90.5467 31.6467 90.0475 31.1C89.7787 30.82 89.5995 30.62 89.5099 30.5ZM96.4603 25.5H98.8603L94.5403 31.5V27.5H92.1403L96.4603 21.5V25.5Z" fill="#1D3E4B"/>
</svg>


