<svg width="192" height="72" viewBox="0 0 192 72" fill="none" xmlns="http://www.w3.org/2000/svg">
<path d="M68 12C68 5.37258 73.3726 0 80 0H112C118.627 0 124 5.37258 124 12V44C124 50.6274 118.627 56 112 56H80C73.3726 56 68 50.6274 68 44V12Z" fill="#F4F5F4"/>
<path d="M98.8603 35.52C98.5403 36.3067 98.0891 37.0034 97.5067 37.61C96.9243 38.2167 96.2555 38.6867 95.5003 39.02C94.7451 38.6867 94.0763 38.2167 93.4939 37.61C92.9115 37.0034 92.4603 36.3067 92.1403 35.52H94.3099C94.6299 36.0134 95.0267 36.4267 95.5003 36.76C95.9739 36.4267 96.3707 36.0134 96.6907 35.52H98.8603ZM101.26 30.32L103.18 32.6V34.52H87.8203V32.6L89.7403 30.32V24.52C89.7403 23.3867 89.9899 22.3 90.4891 21.26C90.9755 20.26 91.6539 19.3867 92.5243 18.64C93.3947 17.8934 94.3867 17.34 95.5003 16.98C96.6139 17.34 97.6059 17.8934 98.4763 18.64C99.3467 19.3867 100.025 20.26 100.512 21.26C101.011 22.3 101.26 23.3867 101.26 24.52V30.32ZM100.55 32.52L99.3403 31.08V24.52C99.3403 23.36 98.9915 22.29 98.2939 21.31C97.5963 20.33 96.6651 19.5934 95.5003 19.1C94.3355 19.5934 93.4043 20.33 92.7067 21.31C92.0091 22.29 91.6603 23.36 91.6603 24.52V31.08L90.4507 32.52H100.55ZM95.5003 26.52C95.1547 26.52 94.8347 26.43 94.5403 26.25C94.2459 26.07 94.0123 25.8267 93.8395 25.52C93.6667 25.2134 93.5803 24.88 93.5803 24.52C93.5803 24.16 93.6667 23.8267 93.8395 23.52C94.0123 23.2134 94.2459 22.97 94.5403 22.79C94.8347 22.61 95.1547 22.52 95.5003 22.52C95.8459 22.52 96.1659 22.61 96.4603 22.79C96.7547 22.97 96.9883 23.2134 97.1611 23.52C97.3339 23.8267 97.4203 24.16 97.4203 24.52C97.4203 24.88 97.3339 25.2134 97.1611 25.52C96.9883 25.8267 96.7547 26.07 96.4603 26.25C96.1659 26.43 95.8459 26.52 95.5003 26.52Z" fill="#1D3E4B"/>
</svg>


