<svg width="192" height="84" viewBox="0 0 192 84" fill="none" xmlns="http://www.w3.org/2000/svg">
<path d="M64 16C64 7.16344 71.1634 0 80 0H112C120.837 0 128 7.16344 128 16V48C128 56.8366 120.837 64 112 64H80C71.1634 64 64 56.8366 64 48V16Z" fill="#4335C2"/>
<path d="M96.4604 36.94V39H101.26V41H89.7404V39H94.5404V36.94C93.286 36.78 92.1468 36.3267 91.1228 35.58C90.0988 34.8333 89.2988 33.8933 88.7228 32.76C88.1212 31.5867 87.8204 30.3333 87.8204 29V23H103.18V29C103.18 30.3333 102.88 31.5867 102.278 32.76C101.702 33.8933 100.902 34.8333 99.878 35.58C98.854 36.3267 97.7148 36.78 96.4604 36.94ZM89.7404 25V29C89.7404 30.08 90.0028 31.0867 90.5276 32.02C91.0396 32.9267 91.7308 33.6467 92.6012 34.18C93.4972 34.7267 94.4636 35 95.5004 35C96.5372 35 97.5036 34.7267 98.3996 34.18C99.27 33.6467 99.9612 32.9267 100.473 32.02C100.998 31.0867 101.26 30.08 101.26 29V25H89.7404ZM84.9404 25H86.8604V29H84.9404V25ZM104.14 25H106.06V29H104.14V25Z" fill="white"/>
</svg>
