<svg width="277" height="80" viewBox="0 0 277 80" fill="none" xmlns="http://www.w3.org/2000/svg">
<path d="M220.328 16C220.328 7.16344 227.492 0 236.328 0H260.328C269.165 0 276.328 7.16344 276.328 16V40C276.328 48.8366 269.165 56 260.328 56H236.328C227.492 56 220.328 48.8366 220.328 40V16Z" fill="white" fill-opacity="0.2"/>
<path d="M252.955 32.06L253.128 32.24L253.301 32.06C253.57 31.7666 253.89 31.57 254.261 31.47C254.632 31.37 255.003 31.37 255.375 31.47C255.746 31.57 256.072 31.7666 256.354 32.06C256.635 32.3533 256.824 32.6933 256.92 33.08C257.016 33.4666 257.016 33.85 256.92 34.23C256.824 34.61 256.635 34.9466 256.354 35.24L253.128 38.6L249.903 35.24C249.621 34.9466 249.432 34.61 249.336 34.23C249.24 33.85 249.24 33.4666 249.336 33.08C249.432 32.6933 249.621 32.3533 249.903 32.06C250.184 31.7666 250.511 31.57 250.882 31.47C251.253 31.37 251.624 31.37 251.995 31.47C252.367 31.57 252.687 31.7666 252.955 32.06ZM247.349 30.4V32.4C246.312 32.4 245.346 32.6733 244.45 33.22C243.579 33.7533 242.888 34.4733 242.376 35.38C241.851 36.3133 241.589 37.32 241.589 38.4H239.669C239.669 36.9733 240.008 35.6466 240.687 34.42C241.339 33.2333 242.229 32.2866 243.355 31.58C244.507 30.8333 245.762 30.44 247.119 30.4H247.349ZM247.349 17.4C248.399 17.4 249.371 17.6733 250.267 18.22C251.125 18.7533 251.81 19.4733 252.322 20.38C252.847 21.3 253.109 22.3 253.109 23.38C253.109 24.46 252.859 25.4533 252.36 26.36C251.874 27.2533 251.205 27.9733 250.354 28.52C249.503 29.0666 248.571 29.36 247.56 29.4H247.349C246.312 29.4 245.346 29.1266 244.45 28.58C243.579 28.0466 242.888 27.3266 242.376 26.42C241.851 25.5 241.589 24.5 241.589 23.42C241.589 22.34 241.839 21.3466 242.338 20.44C242.824 19.5466 243.493 18.8266 244.344 18.28C245.195 17.7333 246.127 17.44 247.138 17.4H247.349ZM247.349 19.4C246.658 19.4 246.018 19.58 245.429 19.94C244.84 20.3 244.373 20.7866 244.027 21.4C243.682 22.0133 243.509 22.68 243.509 23.4C243.509 24.12 243.682 24.7866 244.027 25.4C244.373 26.0133 244.84 26.5 245.429 26.86C246.018 27.22 246.658 27.4 247.349 27.4C248.04 27.4 248.68 27.22 249.269 26.86C249.858 26.5 250.325 26.0133 250.671 25.4C251.016 24.7866 251.189 24.12 251.189 23.4C251.189 22.68 251.016 22.0133 250.671 21.4C250.325 20.7866 249.858 20.3 249.269 19.94C248.68 19.58 248.04 19.4 247.349 19.4Z" fill="white"/>
</svg>
