<svg width="286" height="84" viewBox="0 0 286 84" fill="none" xmlns="http://www.w3.org/2000/svg">
<path d="M111 16C111 7.16344 118.163 0 127 0H159C167.837 0 175 7.16344 175 16V48C175 56.8366 167.837 64 159 64H127C118.163 64 111 56.8366 111 48V16Z" fill="#362A9B"/>
<g clip-path="url(#clip0_111_891)">
<path d="M154.02 32L148.587 37.66L147.224 36.24L151.313 32L147.224 27.76L148.587 26.34L154.02 32ZM133.688 32L137.777 36.24L136.414 37.66L130.98 32L136.414 26.34L137.777 27.76L133.688 32ZM140.369 41H138.334L144.632 23H146.667L140.369 41Z" fill="white"/>
</g>
<defs>
<clipPath id="clip0_111_891">
<rect width="24" height="24" fill="white" transform="translate(130.5 20)"/>
</clipPath>
</defs>
</svg>
