<svg width="40" height="40" viewBox="0 0 40 40" fill="none" xmlns="http://www.w3.org/2000/svg">
<path d="M20 1C30.4934 1 39 9.50659 39 20C39 30.4934 30.4934 39 20 39C9.50659 39 1 30.4934 1 20C1 9.50659 9.50659 1 20 1Z" fill="url(#paint0_linear_111_322)"/>
<path d="M20 1C30.4934 1 39 9.50659 39 20C39 30.4934 30.4934 39 20 39C9.50659 39 1 30.4934 1 20C1 9.50659 9.50659 1 20 1Z" stroke="white" stroke-width="2"/>
<path d="M15.5146 25.625C15.5146 24.7772 15.7202 23.9917 16.1313 23.2683C16.5275 22.5683 17.062 22.0122 17.7347 21.6C18.4299 21.1722 19.1849 20.9583 19.9996 20.9583C20.8144 20.9583 21.5694 21.1722 22.2646 21.6C22.9373 22.0122 23.4718 22.5683 23.868 23.2683C24.2791 23.9917 24.4846 24.7772 24.4846 25.625H15.5146ZM19.9996 20.375C19.3867 20.375 18.8223 20.2156 18.3066 19.8967C17.7983 19.5856 17.3946 19.1656 17.0956 18.6367C16.7891 18.1 16.6359 17.5128 16.6359 16.875C16.6359 16.2372 16.7891 15.65 17.0956 15.1133C17.3946 14.5844 17.7983 14.1644 18.3066 13.8533C18.8223 13.5344 19.3867 13.375 19.9996 13.375C20.6126 13.375 21.177 13.5344 21.6927 13.8533C22.201 14.1644 22.6047 14.5844 22.9037 15.1133C23.2102 15.65 23.3634 16.2372 23.3634 16.875C23.3634 17.5128 23.2102 18.1 22.9037 18.6367C22.6047 19.1656 22.201 19.5856 21.6927 19.8967C21.177 20.2156 20.6126 20.375 19.9996 20.375Z" fill="white"/>
<defs>
<linearGradient id="paint0_linear_111_322" x1="0" y1="0" x2="40" y2="40" gradientUnits="userSpaceOnUse">
<stop stop-color="#675BD3"/>
<stop offset="1" stop-color="#362A9B"/>
</linearGradient>
</defs>
</svg>
