<svg width="277" height="80" viewBox="0 0 277 80" fill="none" xmlns="http://www.w3.org/2000/svg">
<path d="M220.328 16C220.328 7.16344 227.492 0 236.328 0H260.328C269.165 0 276.328 7.16344 276.328 16V40C276.328 48.8366 269.165 56 260.328 56H236.328C227.492 56 220.328 48.8366 220.328 40V16Z" fill="white" fill-opacity="0.2"/>
<path d="M248.329 38C247.023 38 245.775 37.74 244.585 37.22C243.445 36.7133 242.431 35.9967 241.541 35.07C240.652 34.1433 239.964 33.0867 239.477 31.9C238.978 30.66 238.729 29.36 238.729 28C238.729 26.64 238.978 25.34 239.477 24.1C239.964 22.9133 240.652 21.8567 241.541 20.93C242.431 20.0033 243.445 19.2867 244.585 18.78C245.775 18.26 247.023 18 248.329 18C249.634 18 250.882 18.26 252.073 18.78C253.212 19.2867 254.226 20.0033 255.116 20.93C256.005 21.8567 256.693 22.9133 257.18 24.1C257.679 25.34 257.929 26.64 257.929 28C257.929 29.36 257.679 30.66 257.18 31.9C256.693 33.0867 256.005 34.1433 255.116 35.07C254.226 35.9967 253.212 36.7133 252.073 37.22C250.882 37.74 249.634 38 248.329 38ZM248.329 36C249.724 36 251.017 35.6333 252.207 34.9C253.359 34.1933 254.274 33.24 254.953 32.04C255.657 30.8 256.009 29.4533 256.009 28C256.009 26.5467 255.657 25.2 254.953 23.96C254.274 22.76 253.359 21.8067 252.207 21.1C251.017 20.3667 249.724 20 248.329 20C246.933 20 245.641 20.3667 244.45 21.1C243.298 21.8067 242.383 22.76 241.705 23.96C241.001 25.2 240.649 26.5467 240.649 28C240.649 29.4533 241.001 30.8 241.705 32.04C242.383 33.24 243.298 34.1933 244.45 34.9C245.641 35.6333 246.933 36 248.329 36ZM249.289 28H253.129V30H247.369V23H249.289V28Z" fill="white"/>
</svg>
