<svg width="244" height="88" viewBox="0 0 244 88" fill="none" xmlns="http://www.w3.org/2000/svg">
<g filter="url(#filter0_dd_111_1213)">
<path d="M89.6719 18C89.6719 9.16344 96.8353 2 105.672 2H137.672C146.508 2 153.672 9.16344 153.672 18V50C153.672 58.8366 146.508 66 137.672 66H105.672C96.8353 66 89.6719 58.8366 89.6719 50V18Z" fill="#362A9B"/>
<path d="M112.532 25H129.812C130.081 25 130.308 25.0967 130.494 25.29C130.679 25.4833 130.772 25.72 130.772 26V42C130.772 42.28 130.679 42.5167 130.494 42.71C130.308 42.9033 130.081 43 129.812 43H112.532C112.263 43 112.036 42.9033 111.851 42.71C111.665 42.5167 111.572 42.28 111.572 42V26C111.572 25.72 111.665 25.4833 111.851 25.29C112.036 25.0967 112.263 25 112.532 25ZM128.852 29.24L121.249 36.34L113.492 29.22V41H128.852V29.24ZM113.991 27L121.23 33.66L128.372 27H113.991Z" fill="white"/>
</g>
<defs>
<filter id="filter0_dd_111_1213" x="77.6719" y="0" width="88" height="88" filterUnits="userSpaceOnUse" color-interpolation-filters="sRGB">
<feFlood flood-opacity="0" result="BackgroundImageFix"/>
<feColorMatrix in="SourceAlpha" type="matrix" values="0 0 0 0 0 0 0 0 0 0 0 0 0 0 0 0 0 0 127 0" result="hardAlpha"/>
<feMorphology radius="3" operator="erode" in="SourceAlpha" result="effect1_dropShadow_111_1213"/>
<feOffset dy="10"/>
<feGaussianBlur stdDeviation="7.5"/>
<feComposite in2="hardAlpha" operator="out"/>
<feColorMatrix type="matrix" values="0 0 0 0 0 0 0 0 0 0 0 0 0 0 0 0 0 0 0.1 0"/>
<feBlend mode="normal" in2="BackgroundImageFix" result="effect1_dropShadow_111_1213"/>
<feColorMatrix in="SourceAlpha" type="matrix" values="0 0 0 0 0 0 0 0 0 0 0 0 0 0 0 0 0 0 127 0" result="hardAlpha"/>
<feMorphology radius="4" operator="erode" in="SourceAlpha" result="effect2_dropShadow_111_1213"/>
<feOffset dy="4"/>
<feGaussianBlur stdDeviation="3"/>
<feComposite in2="hardAlpha" operator="out"/>
<feColorMatrix type="matrix" values="0 0 0 0 0 0 0 0 0 0 0 0 0 0 0 0 0 0 0.1 0"/>
<feBlend mode="normal" in2="effect1_dropShadow_111_1213" result="effect2_dropShadow_111_1213"/>
<feBlend mode="normal" in="SourceGraphic" in2="effect2_dropShadow_111_1213" result="shape"/>
</filter>
</defs>
</svg>
