<svg width="192" height="72" viewBox="0 0 192 72" fill="none" xmlns="http://www.w3.org/2000/svg">
<path d="M68 12C68 5.37258 73.3726 0 80 0H112C118.627 0 124 5.37258 124 12V44C124 50.6274 118.627 56 112 56H80C73.3726 56 68 50.6274 68 44V12Z" fill="#F4F5F4"/>
<path d="M95.5004 27C96.3708 27 97.174 27.2233 97.91 27.67C98.646 28.1167 99.2284 28.7233 99.6572 29.49C100.086 30.2567 100.3 31.0933 100.3 32V38H98.3804V32C98.3804 31.48 98.2588 30.9967 98.0156 30.55C97.7724 30.1033 97.446 29.7433 97.0364 29.47C96.6268 29.1967 96.1724 29.04 95.6732 29H95.5004C95.0012 29 94.5372 29.1267 94.1084 29.38C93.6796 29.6333 93.334 29.9733 93.0716 30.4C92.8092 30.8267 92.6588 31.3 92.6204 31.82V38H90.7004V32C90.7004 31.0933 90.9148 30.2567 91.3436 29.49C91.7724 28.7233 92.3548 28.1167 93.0908 27.67C93.8268 27.2233 94.63 27 95.5004 27ZM89.2604 30C89.5292 30 89.7916 30.0333 90.0476 30.1C89.8812 30.6067 89.7788 31.1267 89.7404 31.66V32.08C89.6252 32.04 89.51 32.0133 89.3948 32H89.2604C88.8892 32 88.566 32.13 88.2908 32.39C88.0156 32.65 87.8588 32.9733 87.8204 33.36V33.5V38H85.9004V33.5C85.9004 32.86 86.0508 32.2733 86.3516 31.74C86.6524 31.2067 87.0588 30.7833 87.5708 30.47C88.0828 30.1567 88.646 30 89.2604 30ZM101.74 30C102.355 30 102.918 30.1567 103.43 30.47C103.942 30.7833 104.348 31.2067 104.649 31.74C104.95 32.2733 105.1 32.86 105.1 33.5V38H103.18V33.5C103.18 33.1133 103.056 32.7767 102.806 32.49C102.556 32.2033 102.246 32.04 101.875 32H101.74C101.574 32 101.414 32.0267 101.26 32.08V32C101.26 31.3467 101.164 30.7133 100.972 30.1C101.216 30.0333 101.472 30 101.74 30ZM89.2604 24C89.6956 24 90.0956 24.1133 90.4604 24.34C90.8252 24.5667 91.1164 24.87 91.334 25.25C91.5516 25.63 91.6604 26.0467 91.6604 26.5C91.6604 26.9533 91.5516 27.37 91.334 27.75C91.1164 28.13 90.8252 28.4333 90.4604 28.66C90.0956 28.8867 89.6956 29 89.2604 29C88.8252 29 88.4252 28.8867 88.0604 28.66C87.6956 28.4333 87.4044 28.13 87.1868 27.75C86.9692 27.37 86.8604 26.9533 86.8604 26.5C86.8604 26.0467 86.9692 25.63 87.1868 25.25C87.4044 24.87 87.6956 24.5667 88.0604 24.34C88.4252 24.1133 88.8252 24 89.2604 24ZM101.74 24C102.176 24 102.576 24.1133 102.94 24.34C103.305 24.5667 103.596 24.87 103.814 25.25C104.032 25.63 104.14 26.0467 104.14 26.5C104.14 26.9533 104.032 27.37 103.814 27.75C103.596 28.13 103.305 28.4333 102.94 28.66C102.576 28.8867 102.176 29 101.74 29C101.305 29 100.905 28.8867 100.54 28.66C100.176 28.4333 99.8844 28.13 99.6668 27.75C99.4492 27.37 99.3404 26.9533 99.3404 26.5C99.3404 26.0467 99.4492 25.63 99.6668 25.25C99.8844 24.87 100.176 24.5667 100.54 24.34C100.905 24.1133 101.305 24 101.74 24ZM89.2604 26C89.1324 26 89.0204 26.05 88.9244 26.15C88.8284 26.25 88.7804 26.3667 88.7804 26.5C88.7804 26.6333 88.8284 26.75 88.9244 26.85C89.0204 26.95 89.1324 27 89.2604 27C89.3884 27 89.5004 26.95 89.5964 26.85C89.6924 26.75 89.7404 26.6333 89.7404 26.5C89.7404 26.3667 89.6924 26.25 89.5964 26.15C89.5004 26.05 89.3884 26 89.2604 26ZM101.74 26C101.612 26 101.5 26.05 101.404 26.15C101.308 26.25 101.26 26.3667 101.26 26.5C101.26 26.6333 101.308 26.75 101.404 26.85C101.5 26.95 101.612 27 101.74 27C101.868 27 101.98 26.95 102.076 26.85C102.172 26.75 102.22 26.6333 102.22 26.5C102.22 26.3667 102.172 26.25 102.076 26.15C101.98 26.05 101.868 26 101.74 26ZM95.5004 18C96.1916 18 96.8316 18.18 97.4204 18.54C98.0092 18.9 98.4764 19.3867 98.822 20C99.1676 20.6133 99.3404 21.28 99.3404 22C99.3404 22.72 99.1676 23.3867 98.822 24C98.4764 24.6133 98.0092 25.1 97.4204 25.46C96.8316 25.82 96.1916 26 95.5004 26C94.8092 26 94.1692 25.82 93.5804 25.46C92.9916 25.1 92.5244 24.6133 92.1788 24C91.8332 23.3867 91.6604 22.72 91.6604 22C91.6604 21.28 91.8332 20.6133 92.1788 20C92.5244 19.3867 92.9916 18.9 93.5804 18.54C94.1692 18.18 94.8092 18 95.5004 18ZM95.5004 20C95.1548 20 94.8348 20.09 94.5404 20.27C94.246 20.45 94.0124 20.6933 93.8396 21C93.6668 21.3067 93.5804 21.64 93.5804 22C93.5804 22.36 93.6668 22.6933 93.8396 23C94.0124 23.3067 94.246 23.55 94.5404 23.73C94.8348 23.91 95.1548 24 95.5004 24C95.846 24 96.166 23.91 96.4604 23.73C96.7548 23.55 96.9884 23.3067 97.1612 23C97.334 22.6933 97.4204 22.36 97.4204 22C97.4204 21.64 97.334 21.3067 97.1612 21C96.9884 20.6933 96.7548 20.45 96.4604 20.27C96.166 20.09 95.846 20 95.5004 20Z" fill="#1D3E4B"/>
</svg>


