<svg width="244" height="88" viewBox="0 0 244 88" fill="none" xmlns="http://www.w3.org/2000/svg">
<g filter="url(#filter0_dd_111_1189)">
<path d="M89.6719 18C89.6719 9.16344 96.8353 2 105.672 2H137.672C146.508 2 153.672 9.16344 153.672 18V50C153.672 58.8366 146.508 66 137.672 66H105.672C96.8353 66 89.6719 58.8366 89.6719 50V18Z" fill="#1D3E4B"/>
<path d="M121.172 42.0399L125.915 37.0799C126.785 36.1865 127.374 35.1332 127.681 33.9199C127.975 32.7332 127.975 31.5465 127.681 30.3599C127.374 29.1465 126.788 28.0899 125.924 27.1899C125.06 26.2899 124.046 25.6799 122.881 25.3599C121.742 25.0532 120.603 25.0532 119.463 25.3599C118.299 25.6799 117.284 26.2899 116.42 27.1899C115.556 28.0899 114.971 29.1465 114.663 30.3599C114.369 31.5465 114.369 32.7332 114.663 33.9199C114.971 35.1332 115.559 36.1865 116.43 37.0799L121.172 42.0399ZM121.172 44.8599L115.067 38.4999C113.953 37.3532 113.204 35.9932 112.82 34.4199C112.436 32.8999 112.436 31.3799 112.82 29.8599C113.204 28.2865 113.95 26.9232 115.057 25.7699C116.164 24.6165 117.473 23.8332 118.983 23.4199C120.443 23.0332 121.902 23.0332 123.361 23.4199C124.871 23.8332 126.18 24.6165 127.287 25.7699C128.395 26.9232 129.14 28.2865 129.524 29.8599C129.908 31.3799 129.908 32.8999 129.524 34.4199C129.14 35.9932 128.391 37.3532 127.278 38.4999L121.172 44.8599ZM121.172 34.1399C121.518 34.1399 121.838 34.0499 122.132 33.8699C122.427 33.6899 122.66 33.4465 122.833 33.1399C123.006 32.8332 123.092 32.4999 123.092 32.1399C123.092 31.7799 123.006 31.4465 122.833 31.1399C122.66 30.8332 122.427 30.5899 122.132 30.4099C121.838 30.2299 121.518 30.1399 121.172 30.1399C120.827 30.1399 120.507 30.2299 120.212 30.4099C119.918 30.5899 119.684 30.8332 119.511 31.1399C119.339 31.4465 119.252 31.7799 119.252 32.1399C119.252 32.4999 119.339 32.8332 119.511 33.1399C119.684 33.4465 119.918 33.6899 120.212 33.8699C120.507 34.0499 120.827 34.1399 121.172 34.1399ZM121.172 36.1399C120.481 36.1399 119.841 35.9599 119.252 35.5999C118.663 35.2399 118.196 34.7532 117.851 34.1399C117.505 33.5265 117.332 32.8565 117.332 32.1299C117.332 31.4032 117.505 30.7365 117.851 30.1299C118.196 29.5232 118.663 29.0399 119.252 28.6799C119.841 28.3199 120.481 28.1399 121.172 28.1399C121.863 28.1399 122.503 28.3199 123.092 28.6799C123.681 29.0399 124.148 29.5232 124.494 30.1299C124.839 30.7365 125.012 31.4032 125.012 32.1299C125.012 32.8565 124.839 33.5265 124.494 34.1399C124.148 34.7532 123.681 35.2399 123.092 35.5999C122.503 35.9599 121.863 36.1399 121.172 36.1399Z" fill="white"/>
</g>
<defs>
<filter id="filter0_dd_111_1189" x="77.6719" y="0" width="88" height="88" filterUnits="userSpaceOnUse" color-interpolation-filters="sRGB">
<feFlood flood-opacity="0" result="BackgroundImageFix"/>
<feColorMatrix in="SourceAlpha" type="matrix" values="0 0 0 0 0 0 0 0 0 0 0 0 0 0 0 0 0 0 127 0" result="hardAlpha"/>
<feMorphology radius="3" operator="erode" in="SourceAlpha" result="effect1_dropShadow_111_1189"/>
<feOffset dy="10"/>
<feGaussianBlur stdDeviation="7.5"/>
<feComposite in2="hardAlpha" operator="out"/>
<feColorMatrix type="matrix" values="0 0 0 0 0 0 0 0 0 0 0 0 0 0 0 0 0 0 0.1 0"/>
<feBlend mode="normal" in2="BackgroundImageFix" result="effect1_dropShadow_111_1189"/>
<feColorMatrix in="SourceAlpha" type="matrix" values="0 0 0 0 0 0 0 0 0 0 0 0 0 0 0 0 0 0 127 0" result="hardAlpha"/>
<feMorphology radius="4" operator="erode" in="SourceAlpha" result="effect2_dropShadow_111_1189"/>
<feOffset dy="4"/>
<feGaussianBlur stdDeviation="3"/>
<feComposite in2="hardAlpha" operator="out"/>
<feColorMatrix type="matrix" values="0 0 0 0 0 0 0 0 0 0 0 0 0 0 0 0 0 0 0.1 0"/>
<feBlend mode="normal" in2="effect1_dropShadow_111_1189" result="effect2_dropShadow_111_1189"/>
<feBlend mode="normal" in="SourceGraphic" in2="effect2_dropShadow_111_1189" result="shape"/>
</filter>
</defs>
</svg>


