<svg width="48" height="64" viewBox="0 0 48 64" fill="none" xmlns="http://www.w3.org/2000/svg">
<path d="M0 12C0 5.37258 5.37258 0 12 0H36C42.6274 0 48 5.37258 48 12V36C48 42.6274 42.6274 48 36 48H12C5.37258 48 0 42.6274 0 36V12Z" fill="#EEEDFA"/>
<path d="M24.0004 34C22.6948 34 21.4468 33.74 20.2564 33.22C19.1172 32.7133 18.1028 31.9967 17.2132 31.07C16.3236 30.1433 15.6356 29.0867 15.1492 27.9C14.65 26.66 14.4004 25.36 14.4004 24C14.4004 22.64 14.65 21.34 15.1492 20.1C15.6356 18.9133 16.3236 17.8567 17.2132 16.93C18.1028 16.0033 19.1172 15.2867 20.2564 14.78C21.4468 14.26 22.6948 14 24.0004 14C25.306 14 26.554 14.26 27.7444 14.78C28.8836 15.2867 29.898 16.0033 30.7876 16.93C31.6772 17.8567 32.3652 18.9133 32.8516 20.1C33.3508 21.34 33.6004 22.64 33.6004 24C33.6004 25.36 33.3508 26.66 32.8516 27.9C32.3652 29.0867 31.6772 30.1433 30.7876 31.07C29.898 31.9967 28.8836 32.7133 27.7444 33.22C26.554 33.74 25.306 34 24.0004 34ZM24.0004 32C25.3956 32 26.6884 31.6333 27.8788 30.9C29.0308 30.1933 29.946 29.24 30.6244 28.04C31.3284 26.8 31.6804 25.4533 31.6804 24C31.6804 22.5467 31.3284 21.2 30.6244 19.96C29.946 18.76 29.0308 17.8067 27.8788 17.1C26.6884 16.3667 25.3956 16 24.0004 16C22.6052 16 21.3124 16.3667 20.122 17.1C18.97 17.8067 18.0548 18.76 17.3764 19.96C16.6724 21.2 16.3204 22.5467 16.3204 24C16.3204 25.4533 16.6724 26.8 17.3764 28.04C18.0548 29.24 18.97 30.1933 20.122 30.9C21.3124 31.6333 22.6052 32 24.0004 32ZM28.3204 19.5L25.9204 26L19.6804 28.5L22.0804 22L28.3204 19.5ZM24.0004 25C24.2692 25 24.4964 24.9033 24.682 24.71C24.8676 24.5167 24.9604 24.28 24.9604 24C24.9604 23.72 24.8676 23.4833 24.682 23.29C24.4964 23.0967 24.2692 23 24.0004 23C23.7316 23 23.5044 23.0967 23.3188 23.29C23.1332 23.4833 23.0404 23.72 23.0404 24C23.0404 24.28 23.1332 24.5167 23.3188 24.71C23.5044 24.9033 23.7316 25 24.0004 25Z" fill="#362A9B"/>
</svg>
