<svg width="286" height="84" viewBox="0 0 286 84" fill="none" xmlns="http://www.w3.org/2000/svg">
<path d="M111 16C111 7.16344 118.163 0 127 0H159C167.837 0 175 7.16344 175 16V48C175 56.8366 167.837 64 159 64H127C118.163 64 111 56.8366 111 48V16Z" fill="#1D3E4B"/>
<path d="M138.91 36.5C139.14 36.54 139.377 36.58 139.62 36.62C140.222 36.74 140.83 36.88 141.444 37.04C142.314 37.2667 143.127 37.52 143.882 37.8C144.83 38.1467 145.668 38.5267 146.398 38.94C147.255 39.42 147.959 39.94 148.51 40.5H149.47C149.726 40.5 149.946 40.4033 150.132 40.21C150.318 40.0167 150.41 39.78 150.41 39.5V33.44C150.833 33.32 151.182 33.0833 151.457 32.73C151.732 32.3767 151.866 31.9667 151.86 31.5C151.854 31.0333 151.716 30.6233 151.447 30.27C151.178 29.9167 150.839 29.68 150.43 29.56V23.5C150.43 23.22 150.334 22.9833 150.142 22.79C149.95 22.5967 149.719 22.5 149.45 22.5H148.51C147.972 23.06 147.268 23.58 146.398 24.06C145.668 24.4733 144.83 24.8533 143.882 25.2C143.127 25.48 142.314 25.7333 141.444 25.96C140.83 26.12 140.222 26.26 139.62 26.38L138.91 26.5H135.07C134.711 26.5 134.385 26.59 134.09 26.77C133.796 26.95 133.566 27.1933 133.399 27.5C133.233 27.8067 133.15 28.14 133.15 28.5V34.5C133.15 34.86 133.233 35.1933 133.399 35.5C133.566 35.8067 133.796 36.05 134.09 36.23C134.385 36.41 134.705 36.5 135.05 36.5H136.03L136.99 41.5H138.91V36.5ZM140.83 28.16C141.623 27.9867 142.398 27.78 143.153 27.54C145.354 26.8733 147.134 26.0533 148.49 25.08V37.92C147.134 36.9467 145.354 36.1267 143.153 35.46C142.398 35.22 141.617 35.0133 140.81 34.84V28.16H140.83ZM135.07 28.5H138.91V34.5H135.07V28.5Z" fill="white"/>
</svg>


