<svg width="286" height="84" viewBox="0 0 286 84" fill="none" xmlns="http://www.w3.org/2000/svg">
<path d="M111 16C111 7.16344 118.163 0 127 0H159C167.837 0 175 7.16344 175 16V48C175 56.8366 167.837 64 159 64H127C118.163 64 111 56.8366 111 48V16Z" fill="#1D3E4B"/>
<path d="M132.9 24C132.9 23.72 132.993 23.4833 133.179 23.29C133.364 23.0967 133.592 23 133.86 23H151.14C151.409 23 151.636 23.0967 151.822 23.29C152.008 23.4833 152.1 23.72 152.1 24V40C152.1 40.28 152.008 40.5167 151.822 40.71C151.636 40.9033 151.409 41 151.14 41H133.86C133.592 41 133.364 40.9033 133.179 40.71C132.993 40.5167 132.9 40.28 132.9 40V24ZM138.66 25V39H146.34V25H138.66ZM134.82 25V27H136.74V25H134.82ZM148.26 25V27H150.18V25H148.26ZM134.82 29V31H136.74V29H134.82ZM148.26 29V31H150.18V29H148.26ZM134.82 33V35H136.74V33H134.82ZM148.26 33V35H150.18V33H148.26ZM134.82 37V39H136.74V37H134.82ZM148.26 37V39H150.18V37H148.26Z" fill="white"/>
</svg>


