<svg width="286" height="36" viewBox="0 0 286 36" fill="none" xmlns="http://www.w3.org/2000/svg">
<g clip-path="url(#clip0_111_982)">
<path d="M206.93 14.025L202.972 16.335L203.857 11.7033L200.527 8.50663L205.035 7.94663L206.93 3.66496L208.825 7.94663L213.332 8.50663L210.002 11.7033L210.888 16.335L206.93 14.025Z" fill="#315C67"/>
</g>
<g clip-path="url(#clip1_111_982)">
<path d="M224.945 14.025L220.987 16.335L221.873 11.7033L218.543 8.50663L223.05 7.94663L224.945 3.66496L226.84 7.94663L231.348 8.50663L228.018 11.7033L228.903 16.335L224.945 14.025Z" fill="#315C67"/>
</g>
<g clip-path="url(#clip2_111_982)">
<path d="M242.961 14.025L239.003 16.335L239.889 11.7033L236.559 8.50663L241.066 7.94663L242.961 3.66496L244.856 7.94663L249.363 8.50663L246.033 11.7033L246.919 16.335L242.961 14.025Z" fill="#315C67"/>
</g>
<g clip-path="url(#clip3_111_982)">
<path d="M260.977 14.025L257.019 16.335L257.904 11.7033L254.574 8.50663L259.082 7.94663L260.977 3.66496L262.871 7.94663L267.379 8.50663L264.049 11.7033L264.935 16.335L260.977 14.025Z" fill="#315C67"/>
</g>
<path d="M278.992 14.025L275.034 16.335L275.92 11.7033L272.59 8.50663L277.097 7.94663L278.992 3.66496L280.887 7.94663L285.395 8.50663L282.064 11.7033L282.95 16.335L278.992 14.025Z" fill="#315C67"/>
<defs>
<clipPath id="clip0_111_982">
<rect width="14.0156" height="14" fill="white" transform="translate(199.922 3)"/>
</clipPath>
<clipPath id="clip1_111_982">
<rect width="14.0156" height="14" fill="white" transform="translate(217.938 3)"/>
</clipPath>
<clipPath id="clip2_111_982">
<rect width="14.0156" height="14" fill="white" transform="translate(235.953 3)"/>
</clipPath>
<clipPath id="clip3_111_982">
<rect width="14.0156" height="14" fill="white" transform="translate(253.969 3)"/>
</clipPath>
</defs>
</svg>


