<svg width="244" height="88" viewBox="0 0 244 88" fill="none" xmlns="http://www.w3.org/2000/svg">
<g filter="url(#filter0_dd_111_1201)">
<path d="M89.6719 18C89.6719 9.16344 96.8353 2 105.672 2H137.672C146.508 2 153.672 9.16344 153.672 18V50C153.672 58.8366 146.508 66 137.672 66H105.672C96.8353 66 89.6719 58.8366 89.6719 50V18Z" fill="#1D3E4B"/>
<path d="M118.638 32.68C119.086 33.5067 119.633 34.2567 120.279 34.93C120.926 35.6033 121.646 36.1733 122.439 36.64L123.284 35.4C123.425 35.1867 123.614 35.0533 123.851 35C124.087 34.9467 124.315 34.98 124.532 35.1C125.902 35.8867 127.367 36.34 128.929 36.46C129.172 36.4867 129.38 36.5933 129.553 36.78C129.726 36.9667 129.812 37.1933 129.812 37.46V41.92C129.812 42.1733 129.729 42.3967 129.563 42.59C129.396 42.7833 129.191 42.8933 128.948 42.92C128.436 42.9733 127.924 43 127.412 43C125.39 43 123.457 42.5933 121.614 41.78C119.835 40.9933 118.26 39.8867 116.891 38.46C115.521 37.0333 114.459 35.3933 113.703 33.54C112.923 31.62 112.532 29.6067 112.532 27.5C112.532 26.9667 112.558 26.4333 112.609 25.9C112.635 25.6467 112.74 25.4333 112.926 25.26C113.111 25.0867 113.326 25 113.569 25H117.851C118.107 25 118.324 25.09 118.503 25.27C118.683 25.45 118.785 25.6667 118.811 25.92C118.926 27.5467 119.361 29.0733 120.116 30.5C120.231 30.7267 120.263 30.9633 120.212 31.21C120.161 31.4567 120.033 31.6533 119.828 31.8L118.638 32.68ZM116.219 32.02L118.043 30.66C117.531 29.5 117.179 28.28 116.987 27H114.452V27.5C114.452 29.3267 114.791 31.08 115.47 32.76C116.123 34.3733 117.047 35.8033 118.244 37.05C119.441 38.2967 120.814 39.26 122.363 39.94C123.975 40.6467 125.659 41 127.412 41H127.892V38.36C126.663 38.16 125.492 37.7933 124.379 37.26L123.073 39.16C122.548 38.9467 122.036 38.6933 121.537 38.4L121.479 38.38C120.545 37.82 119.694 37.14 118.926 36.34C118.158 35.54 117.505 34.6533 116.967 33.68L116.948 33.62C116.667 33.1 116.423 32.5667 116.219 32.02Z" fill="white"/>
</g>
<defs>
<filter id="filter0_dd_111_1201" x="77.6719" y="0" width="88" height="88" filterUnits="userSpaceOnUse" color-interpolation-filters="sRGB">
<feFlood flood-opacity="0" result="BackgroundImageFix"/>
<feColorMatrix in="SourceAlpha" type="matrix" values="0 0 0 0 0 0 0 0 0 0 0 0 0 0 0 0 0 0 127 0" result="hardAlpha"/>
<feMorphology radius="3" operator="erode" in="SourceAlpha" result="effect1_dropShadow_111_1201"/>
<feOffset dy="10"/>
<feGaussianBlur stdDeviation="7.5"/>
<feComposite in2="hardAlpha" operator="out"/>
<feColorMatrix type="matrix" values="0 0 0 0 0 0 0 0 0 0 0 0 0 0 0 0 0 0 0.1 0"/>
<feBlend mode="normal" in2="BackgroundImageFix" result="effect1_dropShadow_111_1201"/>
<feColorMatrix in="SourceAlpha" type="matrix" values="0 0 0 0 0 0 0 0 0 0 0 0 0 0 0 0 0 0 127 0" result="hardAlpha"/>
<feMorphology radius="4" operator="erode" in="SourceAlpha" result="effect2_dropShadow_111_1201"/>
<feOffset dy="4"/>
<feGaussianBlur stdDeviation="3"/>
<feComposite in2="hardAlpha" operator="out"/>
<feColorMatrix type="matrix" values="0 0 0 0 0 0 0 0 0 0 0 0 0 0 0 0 0 0 0.1 0"/>
<feBlend mode="normal" in2="effect1_dropShadow_111_1201" result="effect2_dropShadow_111_1201"/>
<feBlend mode="normal" in="SourceGraphic" in2="effect2_dropShadow_111_1201" result="shape"/>
</filter>
</defs>
</svg>


