<svg width="48" height="64" viewBox="0 0 48 64" fill="none" xmlns="http://www.w3.org/2000/svg">
<path d="M0 12C0 5.37258 5.37258 0 12 0H36C42.6274 0 48 5.37258 48 12V36C48 42.6274 42.6274 48 36 48H12C5.37258 48 0 42.6274 0 36V12Z" fill="#F4F5F4"/>
<path d="M18.1919 21.9167C18.4159 21.9167 18.6053 21.9973 18.7599 22.1584C18.9146 22.3195 18.9919 22.5167 18.9919 22.7501C19.6319 22.7501 20.2479 22.8584 20.8399 23.0751C21.4319 23.2917 21.9733 23.6001 22.4639 24.0001H24.1919C24.7146 24.0001 25.2079 24.1112 25.6719 24.3334C26.1359 24.5556 26.5386 24.8612 26.8799 25.2501H29.3919C30.1813 25.2501 30.8986 25.4667 31.5439 25.9001C32.1893 26.3334 32.6773 26.9112 33.0079 27.6334C32.0479 28.9556 30.8426 29.9945 29.3919 30.7501C27.8879 31.5279 26.2879 31.9167 24.5919 31.9167C22.4266 31.9167 20.5439 31.4556 18.9439 30.5334C18.8906 30.7001 18.7946 30.8334 18.6559 30.9334C18.5173 31.0334 18.3626 31.0834 18.1919 31.0834H15.7919C15.5679 31.0834 15.3786 31.0029 15.2239 30.8417C15.0693 30.6806 14.9919 30.4834 14.9919 30.2501V22.7501C14.9919 22.5167 15.0693 22.3195 15.2239 22.1584C15.3786 21.9973 15.5679 21.9167 15.7919 21.9167H18.1919ZM18.9919 24.4167V28.6001L19.0239 28.6334C20.5066 29.7112 22.3626 30.2501 24.5919 30.2501C25.7866 30.2501 26.9253 30.0223 28.0079 29.5667C29.0906 29.1112 30.0426 28.4723 30.8639 27.6501L30.9599 27.5334L30.8799 27.4501C30.4853 27.1279 30.0426 26.9501 29.5519 26.9167H29.3919H27.7119C27.7653 27.1945 27.7919 27.4723 27.7919 27.7501V28.5834H20.5919V26.9167H26.0319L25.9999 26.8501C25.8399 26.5167 25.6133 26.2417 25.3199 26.0251C25.0266 25.8084 24.6933 25.689 24.3199 25.6667H21.8559C21.4826 25.2779 21.0506 24.9723 20.5599 24.7501C20.0693 24.5279 19.5466 24.4167 18.9919 24.4167ZM17.3919 23.5834H16.5919V29.4167H17.3919V23.5834ZM28.5919 18.5834C29.0293 18.5834 29.4319 18.6945 29.7999 18.9167C30.1679 19.139 30.4586 19.4417 30.6719 19.8251C30.8853 20.2084 30.9919 20.6279 30.9919 21.0834C30.9919 21.539 30.8853 21.9584 30.6719 22.3417C30.4586 22.7251 30.1679 23.0279 29.7999 23.2501C29.4319 23.4723 29.0293 23.5834 28.5919 23.5834C28.1546 23.5834 27.7519 23.4723 27.3839 23.2501C27.0159 23.0279 26.7253 22.7251 26.5119 22.3417C26.2986 21.9584 26.1919 21.539 26.1919 21.0834C26.1919 20.6279 26.2986 20.2084 26.5119 19.8251C26.7253 19.4417 27.0159 19.139 27.3839 18.9167C27.7519 18.6945 28.1546 18.5834 28.5919 18.5834ZM28.5919 20.2501C28.3679 20.2501 28.1786 20.3306 28.0239 20.4917C27.8693 20.6529 27.7919 20.8501 27.7919 21.0834C27.7919 21.3167 27.8693 21.514 28.0239 21.6751C28.1786 21.8362 28.3679 21.9167 28.5919 21.9167C28.8159 21.9167 29.0053 21.8362 29.1599 21.6751C29.3146 21.514 29.3919 21.3167 29.3919 21.0834C29.3919 20.8501 29.3146 20.6529 29.1599 20.4917C29.0053 20.3306 28.8159 20.2501 28.5919 20.2501ZM22.9919 16.0834C23.4293 16.0834 23.8319 16.1945 24.1999 16.4167C24.5679 16.639 24.8586 16.9417 25.0719 17.3251C25.2853 17.7084 25.3919 18.1279 25.3919 18.5834C25.3919 19.039 25.2853 19.4584 25.0719 19.8417C24.8586 20.2251 24.5679 20.5279 24.1999 20.7501C23.8319 20.9723 23.4293 21.0834 22.9919 21.0834C22.5546 21.0834 22.1519 20.9723 21.7839 20.7501C21.4159 20.5279 21.1253 20.2251 20.9119 19.8417C20.6986 19.4584 20.5919 19.039 20.5919 18.5834C20.5919 18.1279 20.6986 17.7084 20.9119 17.3251C21.1253 16.9417 21.4159 16.639 21.7839 16.4167C22.1519 16.1945 22.5546 16.0834 22.9919 16.0834ZM22.9919 17.7501C22.7679 17.7501 22.5786 17.8306 22.4239 17.9917C22.2693 18.1529 22.1919 18.3501 22.1919 18.5834C22.1919 18.8167 22.2693 19.014 22.4239 19.1751C22.5786 19.3362 22.7679 19.4167 22.9919 19.4167C23.2159 19.4167 23.4053 19.3362 23.5599 19.1751C23.7146 19.014 23.7919 18.8167 23.7919 18.5834C23.7919 18.3501 23.7146 18.1529 23.5599 17.9917C23.4053 17.8306 23.2159 17.7501 22.9919 17.7501Z" fill="#1D3E4B"/>
</svg>


