<svg width="48" height="64" viewBox="0 0 48 64" fill="none" xmlns="http://www.w3.org/2000/svg">
<path d="M0 12C0 5.37258 5.37258 0 12 0H36C42.6274 0 48 5.37258 48 12V36C48 42.6274 42.6274 48 36 48H12C5.37258 48 0 42.6274 0 36V12Z" fill="#F4F5F4"/>
<path d="M31.2 30.6666H32.8V32.3333H15.2V30.6666H16.8V16.4999C16.8 16.2666 16.8773 16.0694 17.032 15.9083C17.1866 15.7471 17.376 15.6666 17.6 15.6666H30.4C30.624 15.6666 30.8133 15.7471 30.968 15.9083C31.1226 16.0694 31.2 16.2666 31.2 16.4999V30.6666ZM29.6 30.6666V17.3333H18.4V30.6666H29.6ZM20.8 23.1666H23.2V24.8333H20.8V23.1666ZM20.8 19.8333H23.2V21.4999H20.8V19.8333ZM20.8 26.4999H23.2V28.1666H20.8V26.4999ZM24.8 26.4999H27.2V28.1666H24.8V26.4999ZM24.8 23.1666H27.2V24.8333H24.8V23.1666ZM24.8 19.8333H27.2V21.4999H24.8V19.8333Z" fill="#1D3E4B"/>
</svg>


