<svg width="192" height="84" viewBox="0 0 192 84" fill="none" xmlns="http://www.w3.org/2000/svg">
<path d="M64 16C64 7.16344 71.1634 0 80 0H112C120.837 0 128 7.16344 128 16V48C128 56.8366 120.837 64 112 64H80C71.1634 64 64 56.8366 64 48V16Z" fill="#4335C2"/>
<path d="M95.5003 26.5C96.8955 26.5 98.1883 26.8667 99.3787 27.6C100.531 28.3067 101.446 29.26 102.124 30.46C102.828 31.7 103.18 33.0467 103.18 34.5C103.18 35.9533 102.828 37.3 102.124 38.54C101.446 39.74 100.531 40.6933 99.3787 41.4C98.1883 42.1333 96.8955 42.5 95.5003 42.5C94.1051 42.5 92.8123 42.1333 91.6219 41.4C90.4699 40.6933 89.5547 39.74 88.8763 38.54C88.1723 37.3 87.8203 35.9533 87.8203 34.5C87.8203 33.0467 88.1723 31.7 88.8763 30.46C89.5547 29.26 90.4699 28.3067 91.6219 27.6C92.8123 26.8667 94.1051 26.5 95.5003 26.5ZM95.5003 28.5C94.4635 28.5 93.4971 28.7733 92.6011 29.32C91.7307 29.8533 91.0395 30.5733 90.5275 31.48C90.0027 32.4133 89.7403 33.4233 89.7403 34.51C89.7403 35.5967 90.0027 36.6 90.5275 37.52C91.0395 38.4267 91.7307 39.1467 92.6011 39.68C93.4971 40.2267 94.4635 40.5 95.5003 40.5C96.5371 40.5 97.5035 40.2267 98.3995 39.68C99.2699 39.1467 99.9611 38.4267 100.473 37.52C100.998 36.6 101.26 35.5967 101.26 34.51C101.26 33.4233 100.998 32.4133 100.473 31.48C99.9611 30.5733 99.2699 29.8533 98.3995 29.32C97.5035 28.7733 96.5371 28.5 95.5003 28.5ZM95.5003 30L96.7675 32.68L99.6091 33.1L97.5547 35.2L98.0347 38.14L95.5003 36.76L92.9659 38.14L93.4459 35.2L91.3915 33.1L94.2331 32.68L95.5003 30ZM101.26 21.5V24.5L99.9547 25.64C98.8539 25.04 97.6891 24.6733 96.4603 24.54V21.5H101.26ZM94.5403 21.5V24.54C93.3115 24.6733 92.1467 25.04 91.0459 25.64L89.7403 24.5V21.5H94.5403Z" fill="white"/>
</svg>
