<svg width="176" height="64" viewBox="0 0 176 64" fill="none" xmlns="http://www.w3.org/2000/svg">
<path d="M63.7812 12C63.7812 5.37258 69.1538 0 75.7812 0H99.7812C106.409 0 111.781 5.37258 111.781 12V36C111.781 42.6274 106.409 48 99.7812 48H75.7812C69.1538 48 63.7812 42.6274 63.7812 36V12Z" fill="white" fill-opacity="0.2"/>
<path d="M87.3672 32.3334C86.2792 32.3334 85.2392 32.1167 84.2472 31.6834C83.2979 31.2612 82.4525 30.6639 81.7112 29.8917C80.9699 29.1195 80.3965 28.2389 79.9912 27.25C79.5752 26.2167 79.3672 25.1334 79.3672 24C79.3672 22.8667 79.5752 21.7834 79.9912 20.75C80.3965 19.7612 80.9699 18.8806 81.7112 18.1084C82.4525 17.3362 83.2979 16.7389 84.2472 16.3167C85.2392 15.8834 86.2792 15.6667 87.3672 15.6667C88.4552 15.6667 89.4952 15.8834 90.4872 16.3167C91.4365 16.7389 92.2819 17.3362 93.0232 18.1084C93.7645 18.8806 94.3379 19.7612 94.7432 20.75C95.1592 21.7834 95.3672 22.8667 95.3672 24C95.3672 25.1334 95.1592 26.2167 94.7432 27.25C94.3379 28.2389 93.7645 29.1195 93.0232 29.8917C92.2819 30.6639 91.4365 31.2612 90.4872 31.6834C89.4952 32.1167 88.4552 32.3334 87.3672 32.3334ZM85.5432 30.3834C84.7432 28.6278 84.2899 26.7778 84.1832 24.8334H81.0152C81.1219 25.7 81.3805 26.5112 81.7912 27.2667C82.2019 28.0223 82.7299 28.6695 83.3752 29.2084C84.0205 29.7473 84.7432 30.1389 85.5432 30.3834ZM85.7992 24.8334C85.9165 26.8334 86.4392 28.7112 87.3672 30.4667C88.2952 28.7112 88.8179 26.8334 88.9352 24.8334H85.7992ZM93.7192 24.8334H90.5512C90.4445 26.7778 89.9965 28.6278 89.2072 30.3834C89.9965 30.1389 90.7139 29.7473 91.3592 29.2084C92.0045 28.6695 92.5325 28.0223 92.9432 27.2667C93.3539 26.5112 93.6125 25.7 93.7192 24.8334ZM81.0152 23.1667H84.1832C84.2899 21.2223 84.7432 19.3723 85.5432 17.6167C84.7432 17.8612 84.0205 18.2528 83.3752 18.7917C82.7299 19.3306 82.2019 19.9778 81.7912 20.7334C81.3805 21.4889 81.1219 22.3 81.0152 23.1667ZM85.7992 23.1667H88.9352C88.8179 21.1667 88.2952 19.2889 87.3672 17.5334C86.4392 19.2889 85.9165 21.1667 85.7992 23.1667ZM89.2072 17.6167C89.9965 19.3723 90.4445 21.2223 90.5512 23.1667H93.7192C93.6125 22.3 93.3539 21.4889 92.9432 20.7334C92.5325 19.9778 92.0045 19.3306 91.3592 18.7917C90.7139 18.2528 89.9965 17.8612 89.2072 17.6167Z" fill="white"/>
</svg>
