<svg width="176" height="64" viewBox="0 0 176 64" fill="none" xmlns="http://www.w3.org/2000/svg">
<path d="M63.7812 12C63.7812 5.37258 69.1538 0 75.7812 0H99.7812C106.409 0 111.781 5.37258 111.781 12V36C111.781 42.6274 106.409 48 99.7812 48H75.7812C69.1538 48 63.7812 42.6274 63.7812 36V12Z" fill="white" fill-opacity="0.2"/>
<path d="M91.3668 26.8667V32.5834C91.3668 32.7056 91.3268 32.8056 91.2468 32.8834C91.1668 32.9612 91.0735 33.0001 90.9668 33.0001C90.8921 33.0001 90.8228 32.9834 90.7588 32.9501L87.3668 30.8334L83.9748 32.9501C83.8788 33.0056 83.7775 33.0195 83.6708 32.9917C83.5641 32.9639 83.4841 32.9001 83.4308 32.8001C83.3881 32.7334 83.3668 32.6612 83.3668 32.5834V26.8667C82.6201 26.2445 82.0388 25.4889 81.6228 24.6001C81.1855 23.6778 80.9668 22.7001 80.9668 21.6667C80.9668 20.4556 81.2601 19.3334 81.8468 18.3001C82.4121 17.2889 83.1748 16.4889 84.1348 15.9001C85.1268 15.3001 86.2041 15.0001 87.3668 15.0001C88.5295 15.0001 89.6068 15.3001 90.5988 15.9001C91.5588 16.4889 92.3215 17.2889 92.8868 18.3001C93.4735 19.3334 93.7668 20.4556 93.7668 21.6667C93.7668 22.7001 93.5481 23.6778 93.1108 24.6001C92.6948 25.4889 92.1135 26.2445 91.3668 26.8667ZM84.9668 27.8334V30.3834L87.3668 28.8834L89.7668 30.3834V27.8334C88.9988 28.1667 88.1988 28.3334 87.3668 28.3334C86.5348 28.3334 85.7348 28.1723 84.9668 27.8501V27.8334ZM87.3668 26.6667C88.2308 26.6667 89.0361 26.4389 89.7828 25.9834C90.5081 25.5389 91.0841 24.9389 91.5108 24.1834C91.9481 23.4056 92.1668 22.5639 92.1668 21.6584C92.1668 20.7528 91.9481 19.9112 91.5108 19.1334C91.0841 18.3778 90.5081 17.7834 89.7828 17.3501C89.0361 16.8945 88.2308 16.6667 87.3668 16.6667C86.5028 16.6667 85.6975 16.8945 84.9508 17.3501C84.2255 17.7834 83.6495 18.3778 83.2228 19.1334C82.7855 19.9112 82.5668 20.7528 82.5668 21.6584C82.5668 22.5639 82.7855 23.4056 83.2228 24.1834C83.6495 24.9389 84.2255 25.5389 84.9508 25.9834C85.6975 26.4389 86.5028 26.6667 87.3668 26.6667Z" fill="white"/>
</svg>
