<svg width="176" height="64" viewBox="0 0 176 64" fill="none" xmlns="http://www.w3.org/2000/svg">
<path d="M63.7812 12C63.7812 5.37258 69.1538 0 75.7812 0H99.7812C106.409 0 111.781 5.37258 111.781 12V36C111.781 42.6274 106.409 48 99.7812 48H75.7812C69.1538 48 63.7812 42.6274 63.7812 36V12Z" fill="white" fill-opacity="0.2"/>
<path d="M94.5671 29.8333H96.1671V31.5H78.5671V29.8333H80.1671V17.3333C80.1671 17.1 80.2445 16.9028 80.3991 16.7417C80.5538 16.5806 80.7431 16.5 80.9671 16.5H88.9671C89.1911 16.5 89.3805 16.5806 89.5351 16.7417C89.6898 16.9028 89.7671 17.1 89.7671 17.3333V29.8333H92.9671V23.1667H91.3671V21.5H93.7671C93.9911 21.5 94.1805 21.5806 94.3351 21.7417C94.4898 21.9028 94.5671 22.1 94.5671 22.3333V29.8333ZM81.7671 18.1667V29.8333H88.1671V18.1667H81.7671ZM83.3671 23.1667H86.5671V24.8333H83.3671V23.1667ZM83.3671 19.8333H86.5671V21.5H83.3671V19.8333Z" fill="white"/>
</svg>
