<svg width="48" height="64" viewBox="0 0 48 64" fill="none" xmlns="http://www.w3.org/2000/svg">
<path d="M0 12C0 5.37258 5.37258 0 12 0H36C42.6274 0 48 5.37258 48 12V36C48 42.6274 42.6274 48 36 48H12C5.37258 48 0 42.6274 0 36V12Z" fill="#EEEDFA"/>
<path d="M20.8 17.3333C20.8 17.6333 20.728 17.911 20.584 18.1666C20.44 18.4221 20.2454 18.6249 20 18.7749C19.7547 18.9249 19.488 18.9999 19.2 18.9999C18.912 18.9999 18.6454 18.9249 18.4 18.7749C18.1547 18.6249 17.96 18.4221 17.816 18.1666C17.672 17.911 17.6 17.6333 17.6 17.3333C17.6 17.0333 17.672 16.7555 17.816 16.4999C17.96 16.2444 18.1547 16.0416 18.4 15.8916C18.6454 15.7416 18.912 15.6666 19.2 15.6666C19.488 15.6666 19.7547 15.7416 20 15.8916C20.2454 16.0416 20.44 16.2444 20.584 16.4999C20.728 16.7555 20.8 17.0333 20.8 17.3333ZM18.4 27.3333V32.3333H16.8V22.3333C16.8 21.8777 16.9067 21.4583 17.12 21.0749C17.3334 20.6916 17.624 20.3888 17.992 20.1666C18.36 19.9444 18.7627 19.8333 19.2 19.8333C19.52 19.8333 19.8267 19.8971 20.12 20.0249C20.4134 20.1527 20.6667 20.3277 20.88 20.5499L22.784 22.4166L24.64 20.4999L25.76 21.6666L22.816 24.7499L21.6 23.5499V32.3333H20V27.3333H18.4ZM19.2 21.4999C18.976 21.4999 18.7867 21.5805 18.632 21.7416C18.4774 21.9027 18.4 22.0999 18.4 22.3333V25.6666H20V22.3333C20 22.0999 19.9227 21.9027 19.768 21.7416C19.6134 21.5805 19.424 21.4999 19.2 21.4999ZM29.6 18.1666H22.4V16.4999H30.4C30.624 16.4999 30.8134 16.5805 30.968 16.7416C31.1227 16.9027 31.2 17.0999 31.2 17.3333V26.4999C31.2 26.7333 31.1227 26.9305 30.968 27.0916C30.8134 27.2527 30.624 27.3333 30.4 27.3333H27.664L29.92 32.3333H28.144L25.888 27.3333H22.4V25.6666H29.6V18.1666Z" fill="#362A9B"/>
</svg>
