<svg width="48" height="72" viewBox="0 0 48 72" fill="none" xmlns="http://www.w3.org/2000/svg">
<path d="M0 12C0 5.37258 5.37258 0 12 0H36C42.6274 0 48 5.37258 48 12V36C48 42.6274 42.6274 48 36 48H12C5.37258 48 0 42.6274 0 36V12Z" fill="#EEEDFA"/>
<path d="M29.8723 19.2835C30.2989 19.7613 30.6136 20.2669 30.8163 20.8002C31.0296 21.3891 31.1363 22.0835 31.1363 22.8835C31.1363 23.8391 30.9283 24.7613 30.5123 25.6502C30.1176 26.5169 29.5576 27.3002 28.8323 28.0002C28.1069 28.7002 27.2643 29.2669 26.3043 29.7002L25.6003 28.5502C26.4216 28.0835 27.0936 27.5446 27.6163 26.9335C28.0429 26.4446 28.3736 25.9002 28.6083 25.3002C28.7683 24.878 28.8963 24.4002 28.9923 23.8669C28.7789 23.978 28.5389 24.0558 28.2723 24.1002C28.0056 24.1446 27.7336 24.1558 27.4563 24.1335C26.9763 24.078 26.5389 23.9169 26.1443 23.6502C25.7496 23.3835 25.4376 23.0363 25.2083 22.6085C24.9789 22.1808 24.8643 21.7169 24.8643 21.2169C24.8643 20.6946 24.9896 20.2085 25.2403 19.7585C25.4909 19.3085 25.8323 18.953 26.2643 18.6919C26.6963 18.4308 27.1629 18.3002 27.6643 18.3002C28.0803 18.3002 28.4856 18.3891 28.8803 18.5669C29.2749 18.7446 29.6056 18.9835 29.8723 19.2835ZM21.8723 19.2835C22.2989 19.7613 22.6136 20.2669 22.8163 20.8002C23.0296 21.3891 23.1363 22.0835 23.1363 22.8835C23.1363 23.8391 22.9283 24.7613 22.5123 25.6502C22.1176 26.5169 21.5576 27.3002 20.8323 28.0002C20.1069 28.7002 19.2643 29.2669 18.3043 29.7002L17.6003 28.5502C18.4216 28.0835 19.0936 27.5446 19.6163 26.9335C20.0429 26.4446 20.3736 25.9002 20.6083 25.3002C20.7683 24.878 20.8963 24.4002 20.9923 23.8669C20.7789 23.978 20.5389 24.0558 20.2723 24.1002C20.0056 24.1446 19.7336 24.1558 19.4563 24.1335C18.9763 24.078 18.5389 23.9169 18.1443 23.6502C17.7496 23.3835 17.4376 23.0363 17.2083 22.6085C16.9789 22.1808 16.8643 21.7169 16.8643 21.2169C16.8643 20.6946 16.9896 20.2085 17.2403 19.7585C17.4909 19.3085 17.8323 18.953 18.2643 18.6919C18.6963 18.4308 19.1629 18.3002 19.6643 18.3002C20.0803 18.3002 20.4856 18.3891 20.8803 18.5669C21.2749 18.7446 21.6056 18.9835 21.8723 19.2835Z" fill="#362A9B"/>
</svg>
